<svg xmlns="http://www.w3.org/2000/svg" xmlns:xlink="http://www.w3.org/1999/xlink" width="500" zoomAndPan="magnify" viewBox="0 0 375 374.999991" height="500" preserveAspectRatio="xMidYMid meet" version="1.2"><g id="9fd2f5493c"><path style=" stroke:none;fill-rule:evenodd;fill:#6ebd47;fill-opacity:1;" d="M 32.613281 139.015625 L 56.238281 139.015625 L 49.714844 166.328125 L 38.335938 216.351562 L 32.613281 212.8125 Z M 32.613281 139.015625 "/><path style=" stroke:none;fill-rule:evenodd;fill:#2e398d;fill-opacity:1;" d="M 69.636719 148.570312 L 96.632812 148.570312 L 96.632812 222.703125 L 81.320312 231.835938 L 88.234375 193.589844 C 88.234375 193.589844 91.699219 179.316406 78.359375 178.179688 C 78.359375 178.179688 71.277344 175.699219 59.425781 192.648438 Z M 69.636719 148.570312 "/><path style=" stroke:none;fill-rule:evenodd;fill:#6ebd47;fill-opacity:1;" d="M 64.371094 242.488281 L 52.355469 234.507812 L 57.292969 214.710938 C 57.292969 214.710938 62.398438 198.730469 74.746094 192.640625 Z M 64.371094 242.488281 "/><path style="fill-rule:evenodd;fill:#6ebd47;fill-opacity:1;stroke-width:1.125;stroke-linecap:butt;stroke-linejoin:round;stroke:#70be47;stroke-opacity:1;stroke-miterlimit:22.926001;" d="M 361.701026 506.140809 L 377.047083 506.140809 L 368.996538 473.485601 Z M 343.957737 544.666404 L 365.334625 453.486646 L 382.171874 453.486646 L 404.983326 544.666404 L 386.447251 544.666404 L 379.887897 517.749453 L 358.973467 517.749453 L 352.782192 544.666404 Z M 343.957737 544.666404 " transform="matrix(0.413889,0,0,0.413889,-35.383719,-32.747733)"/><path style="fill-rule:evenodd;fill:#6ebd47;fill-opacity:1;stroke-width:1.125;stroke-linecap:butt;stroke-linejoin:round;stroke:#70be47;stroke-opacity:1;stroke-miterlimit:22.926001;" d="M 461.431524 484.169328 L 468.472212 484.169328 L 459.534502 533.076637 C 458.647337 537.701218 457.439284 541.183811 455.919778 543.477226 C 454.390835 545.817831 452.503252 546.922068 450.247589 546.922068 C 448.076867 546.922068 446.2931 545.817831 444.867974 543.571605 C 443.452286 541.353694 442.272547 537.889977 441.357068 533.19933 L 437.35539 511.709183 L 433.674602 533.067199 C 432.862941 537.606839 431.692638 541.05168 430.125944 543.420599 C 428.578125 545.761203 426.699979 546.91263 424.491506 546.91263 C 422.320784 546.91263 420.508704 545.827269 419.093016 543.637671 C 417.66789 541.448073 416.469274 537.96548 415.497168 533.208768 L 405.8233 484.169328 L 420.121749 484.178766 L 428.408242 529.735613 L 434.042681 495.674154 L 431.673763 484.178766 L 445.868394 484.178766 L 453.900064 527.914094 Z M 461.431524 484.169328 " transform="matrix(0.413889,0,0,0.413889,-35.383719,-32.747733)"/><path style="fill-rule:evenodd;fill:#6ebd47;fill-opacity:1;stroke-width:1.125;stroke-linecap:butt;stroke-linejoin:round;stroke:#70be47;stroke-opacity:1;stroke-miterlimit:22.926001;" d="M 482.59134 525.233724 L 492.88811 525.233724 L 487.952078 498.977427 Z M 471.643353 544.666404 L 482.402581 495.372141 C 483.459628 490.464422 484.648806 487.047894 485.998429 485.131996 C 487.348051 483.20666 489.16957 482.262868 491.472422 482.262868 C 493.605392 482.262868 495.285342 483.112281 496.512271 484.782793 C 497.710887 486.453305 498.843437 489.671636 499.853295 494.400035 L 510.980602 544.647528 L 496.861474 544.647528 L 494.586936 533.614598 L 480.835887 533.614598 L 478.655727 544.647528 L 471.643353 544.647528 Z M 471.643353 544.666404 " transform="matrix(0.413889,0,0,0.413889,-35.383719,-32.747733)"/><path style="fill-rule:evenodd;fill:#6ebd47;fill-opacity:1;stroke-width:1.125;stroke-linecap:butt;stroke-linejoin:round;stroke:#70be47;stroke-opacity:1;stroke-miterlimit:22.926001;" d="M 524.995913 544.666404 L 524.995913 494.569918 L 513.934671 494.569918 L 513.934671 484.178766 L 549.543942 484.169328 L 549.543942 494.569918 L 538.463824 494.569918 L 538.463824 544.666404 Z M 524.995913 544.666404 " transform="matrix(0.413889,0,0,0.413889,-35.383719,-32.747733)"/><path style="fill-rule:evenodd;fill:#6ebd47;fill-opacity:1;stroke-width:1.125;stroke-linecap:butt;stroke-linejoin:round;stroke:#70be47;stroke-opacity:1;stroke-miterlimit:22.926001;" d="M 556.848892 544.666404 L 556.848892 492.42751 C 556.848892 489.029858 557.500109 486.491057 558.849731 484.801669 C 560.17104 483.131157 562.181317 482.281744 564.852248 482.281744 C 566.956904 482.281744 568.636854 482.989588 569.892097 484.358087 C 571.119027 485.764337 572.242139 488.199321 573.251997 491.757417 L 578.792056 511.350542 L 584.152794 491.757417 C 585.106024 488.123817 586.200823 485.632206 587.418314 484.292021 C 588.61693 482.970712 590.362945 482.281744 592.628046 482.281744 C 595.355605 482.281744 597.413071 483.131157 598.772132 484.801669 C 600.131192 486.472181 600.82016 489.029858 600.82016 492.42751 L 600.82016 544.666404 L 587.541007 544.666404 L 587.541007 499.987285 L 575.620914 544.666404 L 575.139581 544.666404 L 563.512063 501.78049 L 563.512063 544.666404 Z M 556.848892 544.666404 " transform="matrix(0.413889,0,0,0.413889,-35.383719,-32.747733)"/><path style="fill-rule:evenodd;fill:#6ebd47;fill-opacity:1;stroke-width:1.125;stroke-linecap:butt;stroke-linejoin:round;stroke:#70be47;stroke-opacity:1;stroke-miterlimit:22.926001;" d="M 621.772342 544.666404 C 618.554011 544.666404 616.317224 543.656547 614.97704 541.59908 C 613.674607 539.532175 613.013953 535.936327 613.013953 530.830412 L 613.013953 498.043073 C 613.013953 492.946595 613.674607 489.360185 614.97704 487.302718 C 616.317224 485.2075 618.563449 484.178766 621.772342 484.178766 L 640.959633 484.178766 L 640.959633 493.258047 L 630.738366 493.258047 C 629.03954 493.258047 627.897552 493.711067 627.321839 494.626545 C 626.736688 495.551461 626.45355 497.325791 626.45355 499.987285 L 626.45355 509.90654 L 639.411814 509.90654 L 639.411814 518.976382 L 626.462988 518.976382 L 626.462988 529.046644 C 626.462988 531.670387 626.746126 533.42584 627.312401 534.303567 C 627.8598 535.171855 629.020664 535.587124 630.738366 535.587124 L 641.610849 535.587124 L 641.610849 544.647528 L 621.772342 544.638091 Z M 621.772342 544.666404 " transform="matrix(0.413889,0,0,0.413889,-35.383719,-32.747733)"/><path style="fill-rule:evenodd;fill:#6ebd47;fill-opacity:1;stroke-width:1.125;stroke-linecap:butt;stroke-linejoin:round;stroke:#70be47;stroke-opacity:1;stroke-miterlimit:22.926001;" d="M 652.407829 544.666404 L 652.407829 447.031108 L 665.875741 447.031108 L 665.875741 504.989383 L 675.776119 504.979945 L 675.776119 484.188204 L 689.253468 484.188204 L 689.253468 544.694718 L 675.776119 544.694718 L 675.776119 514.823697 L 665.875741 514.823697 L 665.875741 544.694718 L 652.407829 544.694718 Z M 652.407829 544.666404 " transform="matrix(0.413889,0,0,0.413889,-35.383719,-32.747733)"/><path style="fill-rule:evenodd;fill:#6ebd47;fill-opacity:1;stroke-width:1.125;stroke-linecap:butt;stroke-linejoin:round;stroke:#70be47;stroke-opacity:1;stroke-miterlimit:22.926001;" d="M 749.486272 464.831027 L 749.486272 496.325371 L 753.421884 496.325371 C 757.584007 496.325371 760.641893 495.173945 762.642732 492.852216 C 764.615257 490.530487 765.615677 486.944077 765.615677 482.064672 C 765.615677 476.939881 764.464251 472.758881 762.15196 469.597178 C 759.830232 466.40716 756.791222 464.821589 753.053806 464.821589 Z M 732.535768 544.666404 L 732.535768 453.486646 L 757.423562 453.486646 C 765.389167 453.486646 771.58988 456.063198 775.978513 461.206866 C 780.395459 466.331657 782.603932 473.542229 782.603932 482.810268 C 782.603932 490.407794 780.839041 496.438626 777.318697 500.921639 C 773.788915 505.404651 769.022766 507.632001 763.039125 507.632001 L 749.476834 507.632001 L 749.476834 544.656966 L 732.535768 544.656966 Z M 732.535768 544.666404 " transform="matrix(0.413889,0,0,0.413889,-35.383719,-32.747733)"/><path style="fill-rule:evenodd;fill:#6ebd47;fill-opacity:1;stroke-width:1.125;stroke-linecap:butt;stroke-linejoin:round;stroke:#70be47;stroke-opacity:1;stroke-miterlimit:22.926001;" d="M 796.72306 525.233724 L 807.019831 525.233724 L 802.083799 498.977427 Z M 785.765635 544.666404 L 796.54374 495.372141 C 797.600787 490.464422 798.789965 487.047894 800.139587 485.131996 C 801.48921 483.20666 803.310728 482.262868 805.613581 482.262868 C 807.74655 482.262868 809.4265 483.112281 810.634554 484.782793 C 811.83317 486.453305 812.937406 489.671636 813.975577 494.400035 L 825.112323 544.647528 L 811.002633 544.647528 L 808.728094 533.614598 L 794.986483 533.614598 L 792.787448 544.647528 L 785.765635 544.647528 Z M 785.765635 544.666404 " transform="matrix(0.413889,0,0,0.413889,-35.383719,-32.747733)"/><path style="fill-rule:evenodd;fill:#6ebd47;fill-opacity:1;stroke-width:1.125;stroke-linecap:butt;stroke-linejoin:round;stroke:#70be47;stroke-opacity:1;stroke-miterlimit:22.926001;" d="M 867.262072 529.61292 C 865.516057 535.237921 863.175453 539.532175 860.24026 542.495682 C 857.276753 545.45919 853.860226 546.91263 849.94349 546.91263 C 843.912659 546.91263 838.995503 543.967998 835.201459 537.984356 C 831.379101 532.038466 829.491518 524.29937 829.491518 514.785945 C 829.491518 505.281958 831.464043 497.448484 835.390217 491.370462 C 839.316392 485.320755 844.290176 482.281744 850.311568 482.281744 C 854.473691 482.281744 857.956283 483.584177 860.749908 486.189043 C 863.534094 488.812786 865.563247 492.663458 866.799614 497.759935 L 860.976418 502.68653 C 860.334639 498.930237 859.343658 496.079985 858.022349 494.211277 C 856.710478 492.323692 855.077718 491.361024 853.171258 491.361024 C 850.283255 491.361024 848.055906 493.33355 846.517525 497.269163 C 844.99802 501.195338 844.233548 506.905281 844.233548 514.408428 C 844.233548 522.458975 844.875327 528.310487 846.17776 531.981838 C 847.48963 535.643752 849.556535 537.455832 852.425663 537.455832 C 854.530319 537.455832 856.455654 536.361034 858.192231 534.10537 C 859.928809 531.887459 861.19349 528.895638 861.967399 525.129907 Z M 867.262072 529.61292 " transform="matrix(0.413889,0,0,0.413889,-35.383719,-32.747733)"/><path style="fill-rule:evenodd;fill:#6ebd47;fill-opacity:1;stroke-width:1.125;stroke-linecap:butt;stroke-linejoin:round;stroke:#70be47;stroke-opacity:1;stroke-miterlimit:22.926001;" d="M 900.832753 544.666404 L 889.762073 515.493789 L 902.191813 484.188204 L 910.402803 484.188204 L 901.512283 507.27336 L 915.706914 544.694718 L 900.832753 544.694718 Z M 875.661821 447.031108 L 889.129732 447.031108 L 889.129732 544.675842 L 875.661821 544.675842 Z M 875.661821 447.031108 " transform="matrix(0.413889,0,0,0.413889,-35.383719,-32.747733)"/><path style="fill-rule:evenodd;fill:#ffffff;fill-opacity:1;stroke-width:0.75;stroke-linecap:butt;stroke-linejoin:round;stroke:#ffffff;stroke-opacity:1;stroke-miterlimit:22.926001;" d="M 361.701026 506.140809 L 377.047083 506.140809 L 368.996538 473.485601 Z M 343.957737 544.666404 L 365.334625 453.486646 L 382.171874 453.486646 L 404.983326 544.666404 L 386.447251 544.666404 L 379.887897 517.749453 L 358.973467 517.749453 L 352.782192 544.666404 Z M 343.957737 544.666404 " transform="matrix(0.413889,0,0,0.413889,-35.383719,-32.747733)"/><path style="fill-rule:evenodd;fill:#ffffff;fill-opacity:1;stroke-width:0.75;stroke-linecap:butt;stroke-linejoin:round;stroke:#ffffff;stroke-opacity:1;stroke-miterlimit:22.926001;" d="M 461.431524 484.169328 L 468.472212 484.169328 L 459.534502 533.076637 C 458.647337 537.701218 457.439284 541.183811 455.919778 543.477226 C 454.390835 545.817831 452.503252 546.922068 450.247589 546.922068 C 448.076867 546.922068 446.2931 545.817831 444.867974 543.571605 C 443.452286 541.353694 442.272547 537.889977 441.357068 533.19933 L 437.35539 511.709183 L 433.674602 533.067199 C 432.862941 537.606839 431.692638 541.05168 430.125944 543.420599 C 428.578125 545.761203 426.699979 546.91263 424.491506 546.91263 C 422.320784 546.91263 420.508704 545.827269 419.093016 543.637671 C 417.66789 541.448073 416.469274 537.96548 415.497168 533.208768 L 405.8233 484.169328 L 420.121749 484.178766 L 428.408242 529.735613 L 434.042681 495.674154 L 431.673763 484.178766 L 445.868394 484.178766 L 453.900064 527.914094 Z M 461.431524 484.169328 " transform="matrix(0.413889,0,0,0.413889,-35.383719,-32.747733)"/><path style="fill-rule:evenodd;fill:#ffffff;fill-opacity:1;stroke-width:0.75;stroke-linecap:butt;stroke-linejoin:round;stroke:#ffffff;stroke-opacity:1;stroke-miterlimit:22.926001;" d="M 482.59134 525.233724 L 492.88811 525.233724 L 487.952078 498.977427 Z M 471.643353 544.666404 L 482.402581 495.372141 C 483.459628 490.464422 484.648806 487.047894 485.998429 485.131996 C 487.348051 483.20666 489.16957 482.262868 491.472422 482.262868 C 493.605392 482.262868 495.285342 483.112281 496.512271 484.782793 C 497.710887 486.453305 498.843437 489.671636 499.853295 494.390597 L 510.980602 544.647528 L 496.861474 544.647528 L 494.586936 533.614598 L 480.835887 533.614598 L 478.655727 544.647528 L 471.643353 544.647528 Z M 471.643353 544.666404 " transform="matrix(0.413889,0,0,0.413889,-35.383719,-32.747733)"/><path style="fill-rule:evenodd;fill:#ffffff;fill-opacity:1;stroke-width:0.75;stroke-linecap:butt;stroke-linejoin:round;stroke:#ffffff;stroke-opacity:1;stroke-miterlimit:22.926001;" d="M 524.995913 544.666404 L 524.995913 494.569918 L 513.934671 494.569918 L 513.934671 484.178766 L 549.543942 484.169328 L 549.543942 494.569918 L 538.463824 494.569918 L 538.463824 544.666404 Z M 524.995913 544.666404 " transform="matrix(0.413889,0,0,0.413889,-35.383719,-32.747733)"/><path style="fill-rule:evenodd;fill:#ffffff;fill-opacity:1;stroke-width:0.75;stroke-linecap:butt;stroke-linejoin:round;stroke:#ffffff;stroke-opacity:1;stroke-miterlimit:22.926001;" d="M 556.848892 544.666404 L 556.848892 492.42751 C 556.848892 489.029858 557.500109 486.491057 558.849731 484.801669 C 560.17104 483.131157 562.181317 482.281744 564.852248 482.281744 C 566.956904 482.281744 568.636854 482.989588 569.892097 484.358087 C 571.119027 485.764337 572.242139 488.199321 573.251997 491.757417 L 578.792056 511.350542 L 584.152794 491.757417 C 585.106024 488.123817 586.200823 485.632206 587.418314 484.292021 C 588.61693 482.970712 590.362945 482.281744 592.628046 482.281744 C 595.355605 482.281744 597.413071 483.131157 598.772132 484.801669 C 600.131192 486.472181 600.82016 489.029858 600.82016 492.42751 L 600.82016 544.666404 L 587.541007 544.666404 L 587.541007 499.987285 L 575.620914 544.666404 L 575.139581 544.666404 L 563.512063 501.78049 L 563.512063 544.666404 Z M 556.848892 544.666404 " transform="matrix(0.413889,0,0,0.413889,-35.383719,-32.747733)"/><path style="fill-rule:evenodd;fill:#ffffff;fill-opacity:1;stroke-width:0.75;stroke-linecap:butt;stroke-linejoin:round;stroke:#ffffff;stroke-opacity:1;stroke-miterlimit:22.926001;" d="M 621.772342 544.666404 C 618.554011 544.666404 616.317224 543.656547 614.97704 541.59908 C 613.674607 539.532175 613.013953 535.936327 613.013953 530.830412 L 613.013953 498.043073 C 613.013953 492.946595 613.674607 489.360185 614.97704 487.302718 C 616.317224 485.2075 618.563449 484.178766 621.772342 484.178766 L 640.959633 484.178766 L 640.959633 493.258047 L 630.738366 493.258047 C 629.03954 493.258047 627.897552 493.711067 627.321839 494.626545 C 626.736688 495.551461 626.45355 497.325791 626.45355 499.987285 L 626.45355 509.90654 L 639.411814 509.90654 L 639.411814 518.976382 L 626.462988 518.976382 L 626.462988 529.046644 C 626.462988 531.670387 626.746126 533.42584 627.312401 534.303567 C 627.8598 535.171855 629.020664 535.587124 630.738366 535.587124 L 641.610849 535.587124 L 641.610849 544.647528 L 621.772342 544.638091 Z M 621.772342 544.666404 " transform="matrix(0.413889,0,0,0.413889,-35.383719,-32.747733)"/><path style="fill-rule:evenodd;fill:#ffffff;fill-opacity:1;stroke-width:0.75;stroke-linecap:butt;stroke-linejoin:round;stroke:#ffffff;stroke-opacity:1;stroke-miterlimit:22.926001;" d="M 652.407829 544.666404 L 652.407829 447.031108 L 665.875741 447.031108 L 665.875741 504.989383 L 675.776119 504.979945 L 675.776119 484.188204 L 689.253468 484.188204 L 689.253468 544.694718 L 675.776119 544.694718 L 675.776119 514.823697 L 665.875741 514.823697 L 665.875741 544.694718 L 652.407829 544.694718 Z M 652.407829 544.666404 " transform="matrix(0.413889,0,0,0.413889,-35.383719,-32.747733)"/><path style="fill-rule:evenodd;fill:#ffffff;fill-opacity:1;stroke-width:0.75;stroke-linecap:butt;stroke-linejoin:round;stroke:#ffffff;stroke-opacity:1;stroke-miterlimit:22.926001;" d="M 749.486272 464.831027 L 749.486272 496.325371 L 753.421884 496.325371 C 757.584007 496.325371 760.641893 495.173945 762.642732 492.852216 C 764.615257 490.530487 765.615677 486.944077 765.615677 482.064672 C 765.615677 476.939881 764.464251 472.758881 762.15196 469.597178 C 759.830232 466.40716 756.791222 464.821589 753.053806 464.821589 Z M 732.535768 544.666404 L 732.535768 453.486646 L 757.423562 453.486646 C 765.389167 453.486646 771.58988 456.063198 775.978513 461.206866 C 780.395459 466.331657 782.603932 473.542229 782.603932 482.810268 C 782.603932 490.388918 780.839041 496.438626 777.318697 500.921639 C 773.788915 505.404651 769.022766 507.632001 763.039125 507.632001 L 749.476834 507.632001 L 749.476834 544.656966 L 732.535768 544.656966 Z M 732.535768 544.666404 " transform="matrix(0.413889,0,0,0.413889,-35.383719,-32.747733)"/><path style="fill-rule:evenodd;fill:#ffffff;fill-opacity:1;stroke-width:0.75;stroke-linecap:butt;stroke-linejoin:round;stroke:#ffffff;stroke-opacity:1;stroke-miterlimit:22.926001;" d="M 796.72306 525.233724 L 807.019831 525.233724 L 802.083799 498.977427 Z M 785.765635 544.666404 L 796.54374 495.372141 C 797.600787 490.464422 798.789965 487.047894 800.139587 485.131996 C 801.48921 483.20666 803.310728 482.262868 805.613581 482.262868 C 807.74655 482.262868 809.4265 483.112281 810.634554 484.782793 C 811.83317 486.453305 812.937406 489.671636 813.975577 494.390597 L 825.112323 544.647528 L 811.002633 544.647528 L 808.728094 533.614598 L 794.986483 533.614598 L 792.787448 544.647528 L 785.765635 544.647528 Z M 785.765635 544.666404 " transform="matrix(0.413889,0,0,0.413889,-35.383719,-32.747733)"/><path style="fill-rule:evenodd;fill:#ffffff;fill-opacity:1;stroke-width:0.75;stroke-linecap:butt;stroke-linejoin:round;stroke:#ffffff;stroke-opacity:1;stroke-miterlimit:22.926001;" d="M 867.262072 529.61292 C 865.516057 535.237921 863.175453 539.532175 860.24026 542.495682 C 857.276753 545.45919 853.860226 546.91263 849.94349 546.91263 C 843.912659 546.91263 838.995503 543.967998 835.201459 537.984356 C 831.379101 532.038466 829.491518 524.29937 829.491518 514.785945 C 829.491518 505.253645 831.464043 497.448484 835.390217 491.370462 C 839.316392 485.320755 844.290176 482.281744 850.311568 482.281744 C 854.473691 482.281744 857.956283 483.584177 860.749908 486.189043 C 863.534094 488.812786 865.563247 492.663458 866.799614 497.759935 L 860.976418 502.68653 C 860.334639 498.930237 859.343658 496.079985 858.022349 494.211277 C 856.710478 492.323692 855.077718 491.361024 853.171258 491.361024 C 850.283255 491.361024 848.055906 493.33355 846.517525 497.269163 C 844.99802 501.195338 844.233548 506.905281 844.233548 514.408428 C 844.233548 522.458975 844.875327 528.310487 846.17776 531.9724 C 847.48963 535.643752 849.556535 537.455832 852.425663 537.455832 C 854.530319 537.455832 856.455654 536.361034 858.192231 534.10537 C 859.928809 531.887459 861.19349 528.895638 861.967399 525.129907 Z M 867.262072 529.61292 " transform="matrix(0.413889,0,0,0.413889,-35.383719,-32.747733)"/><path style="fill-rule:evenodd;fill:#ffffff;fill-opacity:1;stroke-width:0.75;stroke-linecap:butt;stroke-linejoin:round;stroke:#ffffff;stroke-opacity:1;stroke-miterlimit:22.926001;" d="M 900.832753 544.666404 L 889.762073 515.493789 L 902.191813 484.188204 L 910.402803 484.188204 L 901.512283 507.27336 L 915.706914 544.694718 L 900.832753 544.694718 Z M 875.661821 447.031108 L 889.129732 447.031108 L 889.129732 544.675842 L 875.661821 544.675842 Z M 875.661821 447.031108 " transform="matrix(0.413889,0,0,0.413889,-35.383719,-32.747733)"/><path style=" stroke:none;fill-rule:evenodd;fill:#6ebd47;fill-opacity:1;" d="M 114.320312 177.203125 L 120.671875 177.203125 L 117.339844 163.6875 Z M 106.976562 193.152344 L 115.824219 155.421875 L 122.792969 155.421875 L 132.234375 193.152344 L 124.5625 193.152344 L 121.847656 182.003906 L 113.191406 182.003906 L 110.628906 193.152344 Z M 106.976562 193.152344 "/><path style=" stroke:none;fill-rule:evenodd;fill:#2e398d;fill-opacity:1;" d="M 155.597656 168.117188 L 158.511719 168.117188 L 154.8125 188.355469 C 154.445312 190.273438 153.945312 191.707031 153.316406 192.65625 C 152.6875 193.609375 151.902344 194.078125 150.96875 194.078125 C 150.070312 194.078125 149.332031 193.621094 148.742188 192.695312 C 148.15625 191.773438 147.667969 190.34375 147.289062 188.402344 L 145.632812 179.511719 L 144.109375 188.351562 C 143.773438 190.230469 143.289062 191.648438 142.640625 192.621094 C 142 193.59375 141.222656 194.078125 140.308594 194.078125 C 139.410156 194.078125 138.660156 193.632812 138.074219 192.726562 C 137.484375 191.820312 136.988281 190.382812 136.585938 188.410156 L 132.582031 168.121094 L 138.5 168.125 L 141.929688 186.976562 L 144.261719 172.859375 L 143.28125 168.125 L 149.15625 168.125 L 152.480469 186.222656 Z M 155.597656 168.117188 "/><path style=" stroke:none;fill-rule:evenodd;fill:#2e398d;fill-opacity:1;" d="M 164.355469 185.113281 L 168.617188 185.113281 L 166.574219 174.25 Z M 159.824219 193.152344 L 164.277344 172.75 C 164.714844 170.714844 165.207031 169.296875 165.765625 168.519531 C 166.324219 167.714844 167.078125 167.320312 168.03125 167.320312 C 168.914062 167.320312 169.609375 167.671875 170.117188 168.351562 C 170.613281 169.050781 171.082031 170.394531 171.5 172.351562 L 176.105469 193.148438 L 170.261719 193.148438 L 169.320312 188.570312 L 163.628906 188.570312 L 162.726562 193.148438 Z M 159.824219 193.152344 "/><path style=" stroke:none;fill-rule:evenodd;fill:#2e398d;fill-opacity:1;" d="M 181.90625 193.152344 L 181.90625 172.402344 L 177.328125 172.40625 L 177.328125 168.121094 L 192.066406 168.117188 L 192.066406 172.402344 L 187.480469 172.40625 L 187.480469 193.15625 Z M 181.90625 193.152344 "/><path style=" stroke:none;fill-rule:evenodd;fill:#2e398d;fill-opacity:1;" d="M 195.089844 193.152344 L 195.089844 171.53125 C 195.089844 170.125 195.359375 169.0625 195.917969 168.359375 C 196.464844 167.671875 197.296875 167.332031 198.402344 167.332031 C 199.273438 167.332031 199.96875 167.617188 200.488281 168.1875 C 200.996094 168.761719 201.460938 169.78125 201.878906 171.253906 L 204.171875 179.355469 L 206.390625 171.253906 C 206.785156 169.746094 207.238281 168.714844 207.742188 168.164062 C 208.238281 167.601562 208.960938 167.332031 209.898438 167.332031 C 211.027344 167.332031 211.878906 167.683594 212.441406 168.359375 C 213.003906 169.058594 213.289062 170.125 213.289062 171.53125 L 213.289062 193.152344 L 207.792969 193.15625 L 207.792969 174.664062 L 202.859375 193.15625 L 202.660156 193.15625 L 197.847656 175.410156 L 197.847656 193.15625 L 195.089844 193.15625 Z M 195.089844 193.152344 "/><path style=" stroke:none;fill-rule:evenodd;fill:#2e398d;fill-opacity:1;" d="M 221.960938 193.152344 C 220.628906 193.152344 219.703125 192.726562 219.148438 191.875 C 218.609375 191.011719 218.335938 189.527344 218.335938 187.429688 L 218.335938 173.851562 C 218.335938 171.746094 218.609375 170.257812 219.148438 169.394531 C 219.703125 168.542969 220.632812 168.125 221.960938 168.125 L 229.902344 168.125 L 229.902344 171.875 L 225.671875 171.875 C 224.96875 171.875 224.496094 172.0625 224.257812 172.433594 C 224.015625 172.804688 223.898438 173.554688 223.898438 174.660156 L 223.898438 178.765625 L 229.261719 178.761719 L 229.261719 182.515625 L 223.902344 182.515625 L 223.902344 186.699219 C 223.902344 187.785156 224.019531 188.503906 224.253906 188.863281 C 224.480469 189.226562 224.960938 189.402344 225.671875 189.402344 L 230.171875 189.402344 L 230.171875 193.15625 Z M 221.960938 193.152344 "/><path style=" stroke:none;fill-rule:evenodd;fill:#2e398d;fill-opacity:1;" d="M 234.640625 193.152344 L 234.640625 152.726562 L 240.214844 152.726562 L 240.214844 176.726562 L 244.3125 176.726562 L 244.3125 168.125 L 249.890625 168.125 L 249.890625 193.160156 L 244.3125 193.160156 L 244.3125 180.800781 L 240.214844 180.800781 L 240.214844 193.160156 L 234.640625 193.160156 Z M 234.640625 193.152344 "/><path style=" stroke:none;fill-rule:evenodd;fill:#6ebd47;fill-opacity:1;" d="M 274.820312 160.101562 L 274.820312 173.144531 L 276.449219 173.140625 C 278.171875 173.140625 279.4375 172.660156 280.265625 171.699219 C 281.082031 170.738281 281.496094 169.257812 281.496094 167.238281 C 281.496094 165.117188 281.019531 163.390625 280.0625 162.074219 C 279.101562 160.75 277.84375 160.09375 276.296875 160.09375 Z M 267.804688 193.152344 L 267.804688 155.421875 L 278.105469 155.421875 C 281.402344 155.421875 283.96875 156.480469 285.785156 158.609375 C 287.613281 160.742188 288.527344 163.726562 288.527344 167.5625 C 288.527344 170.707031 287.796875 173.203125 286.339844 175.058594 C 284.878906 176.910156 282.90625 177.835938 280.429688 177.835938 L 274.816406 177.835938 L 274.816406 193.160156 L 267.804688 193.160156 Z M 267.804688 193.152344 "/><path style=" stroke:none;fill-rule:evenodd;fill:#2e398d;fill-opacity:1;" d="M 294.371094 185.113281 L 298.632812 185.113281 L 296.589844 174.25 Z M 289.835938 193.152344 L 294.296875 172.75 C 294.734375 170.714844 295.226562 169.296875 295.785156 168.519531 C 296.34375 167.714844 297.097656 167.320312 298.050781 167.320312 C 298.933594 167.320312 299.628906 167.671875 300.128906 168.351562 C 300.625 169.050781 301.082031 170.394531 301.511719 172.351562 L 306.121094 193.148438 L 300.28125 193.148438 L 299.339844 188.570312 L 293.652344 188.570312 L 292.742188 193.148438 Z M 289.835938 193.152344 "/><path style=" stroke:none;fill-rule:evenodd;fill:#2e398d;fill-opacity:1;" d="M 323.566406 186.910156 C 322.84375 189.25 321.875 191.019531 320.660156 192.246094 C 319.433594 193.480469 318.019531 194.078125 316.398438 194.078125 C 313.902344 194.078125 311.867188 192.851562 310.296875 190.382812 C 308.714844 187.917969 307.933594 184.714844 307.933594 180.789062 C 307.933594 176.832031 308.75 173.597656 310.375 171.09375 C 312 168.589844 314.058594 167.332031 316.550781 167.332031 C 318.273438 167.332031 319.714844 167.867188 320.871094 168.949219 C 322.023438 170.027344 322.863281 171.625 323.375 173.738281 L 320.964844 175.777344 C 320.699219 174.214844 320.289062 173.042969 319.742188 172.25 C 319.199219 171.476562 318.523438 171.085938 317.734375 171.085938 C 316.539062 171.085938 315.617188 171.898438 314.980469 173.523438 C 314.351562 175.140625 314.035156 177.519531 314.035156 180.621094 C 314.035156 183.960938 314.300781 186.378906 314.839844 187.886719 C 315.382812 189.402344 316.238281 190.160156 317.425781 190.160156 C 318.296875 190.160156 319.09375 189.710938 319.8125 188.777344 C 320.53125 187.859375 321.054688 186.621094 321.375 185.054688 Z M 323.566406 186.910156 "/><path style=" stroke:none;fill-rule:evenodd;fill:#2e398d;fill-opacity:1;" d="M 337.460938 193.152344 L 332.878906 181.074219 L 338.023438 168.125 L 341.421875 168.128906 L 337.742188 177.667969 L 343.617188 193.164062 L 337.460938 193.164062 Z M 327.042969 152.726562 L 332.617188 152.726562 L 332.617188 193.152344 L 327.042969 193.152344 Z M 327.042969 152.726562 "/><path style=" stroke:none;fill-rule:evenodd;fill:#6ebd47;fill-opacity:1;" d="M 129.367188 206.609375 C 127.519531 206.609375 126.203125 209.425781 126.203125 215.667969 C 126.203125 220.402344 127.253906 225.609375 129.957031 225.609375 C 131.953125 225.609375 133.175781 221.859375 133.175781 216.554688 C 133.175781 211.8125 132.054688 206.609375 129.367188 206.609375 M 129.488281 226.839844 C 124.644531 226.839844 123.308594 220.597656 123.308594 216.707031 C 123.308594 210.324219 125.324219 205.375 129.882812 205.375 C 134.75 205.375 136.0625 211.121094 136.0625 215.480469 C 136.0625 222.269531 133.730469 226.839844 129.488281 226.839844 "/><path style="fill:none;stroke-width:0.9;stroke-linecap:butt;stroke-linejoin:round;stroke:#70be47;stroke-opacity:1;stroke-miterlimit:22.926001;" d="M 398.055893 578.312594 C 393.591757 578.312594 390.411178 585.117335 390.411178 600.199134 C 390.411178 611.637894 392.949978 624.218644 399.481018 624.218644 C 404.303795 624.218644 407.257864 615.158239 407.257864 602.341542 C 407.257864 590.883905 404.549181 578.312594 398.055893 578.312594 Z M 398.348468 627.191589 C 386.645448 627.191589 383.417679 612.109791 383.417679 602.709621 C 383.417679 587.288057 388.287646 575.330211 399.301698 575.330211 C 411.061346 575.330211 414.232487 589.213393 414.232487 599.746114 C 414.232487 616.149221 408.598049 627.191589 398.348468 627.191589 Z M 398.348468 627.191589 " transform="matrix(0.413889,0,0,0.413889,-35.383719,-32.747733)"/><path style=" stroke:none;fill-rule:evenodd;fill:#6ebd47;fill-opacity:1;" d="M 144.136719 206.609375 C 142.292969 206.609375 140.957031 209.425781 140.957031 215.667969 C 140.957031 220.402344 142.019531 225.609375 144.722656 225.609375 C 146.714844 225.609375 147.945312 221.859375 147.945312 216.554688 C 147.949219 211.8125 146.8125 206.609375 144.136719 206.609375 M 144.261719 226.839844 C 139.417969 226.839844 138.078125 220.597656 138.078125 216.707031 C 138.078125 210.324219 140.101562 205.375 144.648438 205.375 C 149.523438 205.375 150.824219 211.121094 150.824219 215.480469 C 150.828125 222.269531 148.492188 226.839844 144.261719 226.839844 "/><path style="fill:none;stroke-width:0.9;stroke-linecap:butt;stroke-linejoin:round;stroke:#70be47;stroke-opacity:1;stroke-miterlimit:22.926001;" d="M 433.740667 578.312594 C 429.285969 578.312594 426.0582 585.117335 426.0582 600.199134 C 426.0582 611.637894 428.625315 624.218644 435.156355 624.218644 C 439.969694 624.218644 442.942639 615.158239 442.942639 602.341542 C 442.952077 590.883905 440.205642 578.312594 433.740667 578.312594 Z M 434.042681 627.191589 C 422.33966 627.191589 419.102454 612.109791 419.102454 602.709621 C 419.102454 587.288057 423.991296 575.330211 434.977035 575.330211 C 446.755558 575.330211 449.898386 589.213393 449.898386 599.746114 C 449.907824 616.149221 444.263948 627.191589 434.042681 627.191589 Z M 434.042681 627.191589 " transform="matrix(0.413889,0,0,0.413889,-35.383719,-32.747733)"/><path style=" stroke:none;fill-rule:evenodd;fill:#6ebd47;fill-opacity:1;" d="M 165.378906 212.832031 C 165.378906 220.496094 159.339844 225.316406 156.296875 226.902344 C 156.167969 226.988281 156.054688 227.011719 155.859375 227.011719 C 155.761719 227.011719 155.625 226.871094 155.625 226.738281 C 155.625 226.546875 155.804688 226.378906 155.929688 226.273438 C 158.480469 224.539062 162.324219 220.054688 162.324219 213.59375 C 162.324219 208.742188 160.472656 206.613281 158.585938 206.613281 C 156.8125 206.613281 155.617188 208.371094 155.617188 210.699219 C 155.617188 214.886719 158.058594 215.875 158.898438 215.875 C 159.761719 215.875 160.257812 215.703125 160.566406 215.542969 C 160.839844 215.378906 160.960938 215.246094 161.066406 215.246094 C 161.164062 215.246094 161.265625 215.34375 161.265625 215.484375 C 161.265625 215.574219 161.1875 215.734375 161.140625 215.792969 C 160.421875 216.636719 159.148438 217.042969 157.890625 217.042969 C 154.347656 217.042969 152.875 214.058594 152.875 211.753906 C 152.875 208.058594 155.382812 205.378906 159.171875 205.378906 C 163.1875 205.382812 165.378906 208.664062 165.378906 212.832031 "/><path style="fill:none;stroke-width:0.9;stroke-linecap:butt;stroke-linejoin:round;stroke:#70be47;stroke-opacity:1;stroke-miterlimit:22.926001;" d="M 485.064075 593.347203 C 485.064075 611.864405 470.473051 623.5108 463.120911 627.342596 C 462.80946 627.55023 462.53576 627.606857 462.063864 627.606857 C 461.827916 627.606857 461.497589 627.267092 461.497589 626.946203 C 461.497589 626.483745 461.931733 626.077914 462.233747 625.82309 C 468.396708 621.632653 477.683621 610.797919 477.683621 595.187597 C 477.683621 583.465699 473.210047 578.322032 468.651532 578.322032 C 464.366717 578.322032 461.478713 582.569097 461.478713 588.194098 C 461.478713 598.311549 467.377413 600.699344 469.406566 600.699344 C 471.492346 600.699344 472.690962 600.284075 473.436557 599.89712 C 474.097212 599.500728 474.389787 599.179838 474.644611 599.179838 C 474.880559 599.179838 475.125945 599.415786 475.125945 599.755551 C 475.125945 599.972624 474.937187 600.359578 474.823932 600.501147 C 473.087354 602.539738 470.010593 603.521282 466.971582 603.521282 C 458.411389 603.521282 454.853294 596.31071 454.853294 590.742337 C 454.853294 581.814063 460.912438 575.339649 470.06722 575.339649 C 479.769402 575.349087 485.064075 583.276941 485.064075 593.347203 Z M 485.064075 593.347203 " transform="matrix(0.413889,0,0,0.413889,-35.383719,-32.747733)"/><path style=" stroke:none;fill-rule:evenodd;fill:#6ebd47;fill-opacity:1;" d="M 167.613281 218.988281 C 167.613281 213.652344 171.402344 207.929688 176.746094 205.542969 C 176.964844 205.433594 177.164062 205.382812 177.289062 205.382812 C 177.4375 205.382812 177.585938 205.460938 177.585938 205.625 C 177.585938 205.871094 177.246094 206.0625 176.96875 206.222656 C 174.09375 208.027344 170.695312 212.472656 170.695312 219.019531 C 170.695312 222.214844 171.949219 225.644531 174.441406 225.644531 C 176.140625 225.644531 177.539062 224.21875 177.539062 221.042969 C 177.539062 217.242188 175.695312 215.578125 174.074219 215.578125 C 173.457031 215.578125 173.140625 215.664062 172.789062 215.773438 C 172.59375 215.824219 172.371094 215.933594 172.246094 215.933594 C 172.152344 215.933594 172.054688 215.847656 172.054688 215.660156 C 172.054688 215.460938 172.179688 215.351562 172.320312 215.246094 C 173.058594 214.667969 174.164062 214.261719 175.515625 214.261719 C 178.984375 214.261719 180.542969 217.386719 180.542969 219.820312 C 180.542969 224.0625 177.714844 226.855469 174.117188 226.855469 C 170.320312 226.839844 167.613281 223.941406 167.613281 218.988281 "/><path style="fill:none;stroke-width:0.9;stroke-linecap:butt;stroke-linejoin:round;stroke:#70be47;stroke-opacity:1;stroke-miterlimit:22.926001;" d="M 490.462565 608.221367 C 490.462565 595.329166 499.617347 581.502611 512.528421 575.736042 C 513.056945 575.47178 513.538278 575.349087 513.840292 575.349087 C 514.198933 575.349087 514.557574 575.537845 514.557574 575.934238 C 514.557574 576.528827 513.736475 576.991285 513.066382 577.37824 C 506.120074 581.73856 497.909083 592.478914 497.909083 608.29687 C 497.909083 616.01709 500.938656 624.303585 506.960048 624.303585 C 511.065543 624.303585 514.444319 620.858744 514.444319 613.185714 C 514.444319 604.002616 509.989621 599.982062 506.072884 599.982062 C 504.581693 599.982062 503.817221 600.189696 502.967808 600.453958 C 502.495912 600.576651 501.957951 600.840912 501.655938 600.840912 C 501.429427 600.840912 501.193479 600.633278 501.193479 600.180258 C 501.193479 599.698924 501.495493 599.434662 501.835258 599.179838 C 503.619025 597.783026 506.289956 596.801482 509.555476 596.801482 C 517.936349 596.801482 521.702079 604.351819 521.702079 610.231644 C 521.702079 620.481227 514.869025 627.229341 506.176701 627.229341 C 497.003043 627.191589 490.462565 620.188651 490.462565 608.221367 Z M 490.462565 608.221367 " transform="matrix(0.413889,0,0,0.413889,-35.383719,-32.747733)"/><path style="fill-rule:evenodd;fill:#6ebd47;fill-opacity:1;stroke-width:0.9;stroke-linecap:butt;stroke-linejoin:round;stroke:#70be47;stroke-opacity:1;stroke-miterlimit:22.926001;" d="M 526.864621 626.077914 C 526.439915 626.077914 526.00577 625.690959 526.00577 625.152998 C 526.00577 624.633912 526.628673 624.029885 527.204386 623.454172 C 535.528631 615.29037 547.363783 604.993598 547.363783 591.025474 C 547.363783 580.558819 542.182365 578.482477 539.199982 578.482477 C 536.651744 578.482477 534.688657 579.001562 532.895452 580.832519 C 531.460888 582.361462 530.403841 585.466538 530.403841 587.193678 C 530.403841 587.835457 530.205645 588.448922 529.620494 588.448922 C 529.327918 588.448922 529.148598 587.995901 529.09197 587.193678 C 529.054219 586.589651 528.742767 581.087343 528.742767 579.190321 C 528.742767 578.586294 528.799395 578.322032 529.450611 577.850136 C 531.772339 576.528827 534.981232 575.349087 540.20984 575.349087 C 550.676493 575.349087 555.140629 581.69137 555.140629 589.430465 C 555.140629 602.266039 542.361685 613.449975 534.688657 620.254717 C 534.377205 620.518978 534.499898 620.717175 534.820787 620.717175 L 538.850779 620.717175 C 539.870075 620.717175 546.901325 620.651109 549.072046 620.33022 C 553.177541 619.801696 555.140629 617.536595 555.876786 614.440957 C 556.027793 613.638734 556.225989 613.38391 556.565755 613.38391 C 556.990461 613.38391 557.056526 613.978499 557.056526 614.629716 C 557.056526 615.686763 555.933414 621.83085 555.319949 624.095951 C 554.848053 625.898594 553.885385 626.087352 550.147969 626.087352 L 526.836307 626.087352 L 526.836307 626.077914 Z M 526.864621 626.077914 " transform="matrix(0.413889,0,0,0.413889,-35.383719,-32.747733)"/><path style=" stroke:none;fill-rule:evenodd;fill:#6ebd47;fill-opacity:1;" d="M 205.9375 226.355469 C 205.523438 226.105469 205.46875 225.863281 205.46875 225.292969 C 205.46875 224.378906 205.445312 222.742188 205.570312 221.839844 C 205.621094 221.5625 205.691406 221.347656 205.832031 221.347656 C 206.007812 221.347656 206.058594 221.507812 206.058594 221.800781 C 206.058594 224.734375 207.679688 225.480469 209.40625 225.480469 C 211.371094 225.480469 213.472656 224.023438 213.472656 220.464844 C 213.472656 216.085938 209.1875 214.289062 207.242188 213.984375 C 206.945312 213.929688 206.773438 213.789062 206.804688 213.429688 L 207.367188 206.207031 C 207.390625 205.925781 207.5625 205.847656 207.832031 205.847656 L 213.863281 205.847656 C 214.546875 205.847656 214.976562 205.8125 215.242188 205.761719 C 215.511719 205.730469 215.652344 205.652344 215.738281 205.652344 C 215.933594 205.652344 215.980469 205.761719 215.980469 206.164062 C 215.980469 206.746094 215.910156 207.945312 215.652344 209.664062 C 215.640625 209.828125 215.5625 210.003906 215.390625 210.003906 C 215.242188 210.003906 215.195312 209.835938 215.195312 209.609375 C 215.195312 208.847656 215.023438 208.132812 213.027344 208.132812 L 208.554688 208.128906 L 208.203125 211.46875 C 211.875 212.132812 216.347656 214.378906 216.347656 219.140625 C 216.347656 222.769531 213.960938 226.824219 208.246094 226.824219 C 207.457031 226.839844 206.546875 226.683594 205.9375 226.355469 "/><path style="fill:none;stroke-width:0.9;stroke-linecap:butt;stroke-linejoin:round;stroke:#70be47;stroke-opacity:1;stroke-miterlimit:22.926001;" d="M 583.057995 626.021287 C 582.057576 625.41726 581.925445 624.832109 581.925445 623.454172 C 581.925445 621.245698 581.868817 617.291209 582.170831 615.11105 C 582.293524 614.440957 582.463406 613.921871 582.803171 613.921871 C 583.227878 613.921871 583.350571 614.308826 583.350571 615.01667 C 583.350571 622.104549 587.267307 623.907192 591.438868 623.907192 C 596.186142 623.907192 601.263742 620.386848 601.263742 611.788901 C 601.263742 601.208991 590.910344 596.867547 586.21026 596.13139 C 585.492979 595.999259 585.07771 595.659494 585.153213 594.791205 L 586.512274 577.340488 C 586.568901 576.660958 586.98417 576.472199 587.635386 576.472199 L 602.207534 576.472199 C 603.85917 576.472199 604.897342 576.387258 605.53912 576.264565 C 606.190337 576.189062 606.530102 576.000303 606.737736 576.000303 C 607.209632 576.000303 607.322887 576.264565 607.322887 577.236671 C 607.322887 578.642921 607.153004 581.540363 606.530102 585.693049 C 606.501788 586.089441 606.313029 586.514148 605.897761 586.514148 C 605.53912 586.514148 605.425865 586.108317 605.425865 585.560918 C 605.425865 583.720523 605.010597 581.993383 600.18782 581.993383 L 589.381401 581.983945 L 588.531989 590.053368 C 597.403633 591.657815 608.210051 597.08462 608.210051 608.589446 C 608.210051 617.357275 602.443482 627.153837 588.635806 627.153837 C 586.729346 627.191589 584.530311 626.814072 583.057995 626.021287 Z M 583.057995 626.021287 " transform="matrix(0.413889,0,0,0.413889,-35.383719,-32.747733)"/><path style=" stroke:none;fill-rule:evenodd;fill:#6ebd47;fill-opacity:1;" d="M 227.515625 226.199219 C 227.144531 225.96875 227.101562 225.757812 227.101562 225.421875 C 227.101562 224.144531 227.171875 222.597656 227.273438 222.007812 C 227.324219 221.675781 227.394531 221.488281 227.542969 221.488281 C 227.6875 221.488281 227.761719 221.640625 227.761719 221.867188 C 227.761719 223.625 228.976562 225.519531 231.457031 225.519531 C 233.886719 225.519531 235.914062 224.085938 235.914062 220.824219 C 235.914062 217.167969 232.957031 215.886719 231.753906 215.636719 C 231.109375 215.496094 230.96875 215.386719 230.96875 215.175781 C 230.96875 214.988281 231.136719 214.839844 231.410156 214.789062 C 232.523438 214.542969 235.230469 213.277344 235.230469 210.074219 C 235.230469 208.925781 234.46875 206.703125 231.957031 206.703125 C 230.007812 206.703125 228.535156 207.996094 228.535156 209.609375 C 228.535156 209.941406 228.429688 210.03125 228.308594 210.03125 C 228.214844 210.03125 228.132812 209.9375 228.105469 209.636719 C 228.011719 208.761719 227.933594 207.539062 227.933594 206.90625 C 227.933594 206.648438 227.960938 206.546875 228.285156 206.378906 C 229.117188 205.976562 230.59375 205.398438 232.636719 205.398438 C 237.355469 205.398438 238.21875 208.164062 238.21875 209.445312 C 238.21875 212.128906 235.605469 214 234.628906 214.382812 L 234.628906 214.433594 C 236.445312 214.902344 239.003906 216.515625 239.003906 219.832031 C 239.003906 223.660156 236.03125 226.867188 231.230469 226.867188 C 229.488281 226.839844 228.085938 226.550781 227.515625 226.199219 "/><path style="fill:none;stroke-width:0.9;stroke-linecap:butt;stroke-linejoin:round;stroke:#70be47;stroke-opacity:1;stroke-miterlimit:22.926001;" d="M 635.193064 625.64377 C 634.296462 625.086932 634.192644 624.577285 634.192644 623.765623 C 634.192644 620.679423 634.362527 616.942006 634.607913 615.51688 C 634.730606 614.714657 634.900488 614.261637 635.259129 614.261637 C 635.608332 614.261637 635.787653 614.629716 635.787653 615.177115 C 635.787653 619.42418 638.722846 624.001571 644.715925 624.001571 C 650.586311 624.001571 655.484591 620.537854 655.484591 612.65719 C 655.484591 603.823296 648.340086 600.727657 645.433207 600.12363 C 643.87595 599.783865 643.536185 599.519603 643.536185 599.009956 C 643.536185 598.556935 643.942015 598.198294 644.60267 598.075601 C 647.292477 597.481012 653.832955 594.423126 653.832955 586.68403 C 653.832955 583.909281 651.992561 578.539104 645.923979 578.539104 C 641.214457 578.539104 637.656361 581.663056 637.656361 585.560918 C 637.656361 586.363141 637.401537 586.580213 637.108962 586.580213 C 636.882452 586.580213 636.684255 586.353703 636.61819 585.626983 C 636.39168 583.512889 636.202921 580.558819 636.202921 579.029876 C 636.202921 578.406973 636.268987 578.161587 637.052334 577.755757 C 639.062611 576.783651 642.630145 575.386838 647.566177 575.386838 C 658.967184 575.386838 661.052964 582.068887 661.052964 585.164525 C 661.052964 591.648377 654.738996 596.169141 652.379516 597.094058 L 652.379516 597.216751 C 656.768148 598.349301 662.949986 602.247163 662.949986 610.259958 C 662.949986 619.509121 655.767729 627.257654 644.168526 627.257654 C 639.959213 627.191589 636.571 626.493183 635.193064 625.64377 Z M 635.193064 625.64377 " transform="matrix(0.413889,0,0,0.413889,-35.383719,-32.747733)"/><path style=" stroke:none;fill-rule:evenodd;fill:#6ebd47;fill-opacity:1;" d="M 247.992188 206.5625 C 245.855469 206.5625 244.992188 208.265625 244.992188 209.785156 C 244.992188 211.488281 246.046875 212.605469 248.292969 214.007812 C 249 213.648438 250.703125 212.585938 250.703125 209.8125 C 250.703125 207.753906 249.46875 206.5625 247.992188 206.5625 M 247.84375 225.589844 C 249.765625 225.589844 251.308594 223.972656 251.308594 221.453125 C 251.308594 218.722656 249.347656 217.429688 247.148438 216.011719 C 245.824219 216.867188 244.242188 218.535156 244.242188 221.320312 C 244.253906 223.75 245.859375 225.589844 247.84375 225.589844 M 241.480469 221.484375 C 241.480469 218.441406 243.617188 216.414062 246 215.339844 C 243.957031 214.175781 242.429688 212.671875 242.429688 210.328125 C 242.429688 208.199219 244.074219 205.378906 248.261719 205.378906 C 251.265625 205.378906 253.308594 206.90625 253.308594 209.566406 C 253.308594 212.445312 251.042969 214.058594 249.6875 214.632812 C 251.4375 215.671875 254.160156 217.378906 254.160156 220.765625 C 254.160156 224 251.777344 226.84375 247.640625 226.84375 C 244.007812 226.839844 241.480469 224.847656 241.480469 221.484375 "/><path style="fill:none;stroke-width:0.9;stroke-linecap:butt;stroke-linejoin:round;stroke:#70be47;stroke-opacity:1;stroke-miterlimit:22.926001;" d="M 684.666639 578.199339 C 679.504097 578.199339 677.418317 582.314273 677.418317 585.985624 C 677.418317 590.100558 679.966555 592.799803 685.393359 596.188017 C 687.101622 595.319728 691.216555 592.752614 691.216555 586.05169 C 691.216555 581.077905 688.234173 578.199339 684.666639 578.199339 Z M 684.307998 624.171454 C 688.951455 624.171454 692.679433 620.264155 692.679433 614.176695 C 692.679433 607.579588 687.941597 604.455636 682.628048 601.029671 C 679.428594 603.096576 675.606236 607.126568 675.606236 613.855806 C 675.63455 619.726193 679.513535 624.171454 684.307998 624.171454 Z M 668.933627 614.252199 C 668.933627 606.900058 674.096169 602.001777 679.8533 599.406348 C 674.917268 596.593848 671.227041 592.960248 671.227041 587.297495 C 671.227041 582.153828 675.200406 575.339649 685.317856 575.339649 C 692.575616 575.339649 697.511648 579.029876 697.511648 585.457101 C 697.511648 592.412849 692.037654 596.31071 688.762696 597.698085 C 692.990884 600.208572 699.569114 604.332943 699.569114 612.515621 C 699.569114 620.33022 693.811983 627.201027 683.817226 627.201027 C 675.039961 627.191589 668.933627 622.378249 668.933627 614.252199 Z M 668.933627 614.252199 " transform="matrix(0.413889,0,0,0.413889,-35.383719,-32.747733)"/><path style="fill-rule:evenodd;fill:#6ebd47;fill-opacity:1;stroke-width:0.9;stroke-linecap:butt;stroke-linejoin:round;stroke:#70be47;stroke-opacity:1;stroke-miterlimit:22.926001;" d="M 722.729769 587.439064 L 722.559887 587.439064 C 721.200826 589.6381 711.328762 604.927532 709.309048 607.900478 L 722.739207 607.900478 L 722.739207 587.439064 Z M 704.476833 613.063021 C 703.759551 613.063021 702.985641 612.789321 702.985641 612.043725 C 702.985641 611.269816 703.523603 610.646913 703.759551 610.335461 C 704.193695 609.816376 726.363369 577.189481 726.844702 576.519389 C 727.326036 575.934238 727.797932 575.349087 728.392521 575.349087 C 728.930483 575.349087 729.109803 575.802107 729.109803 576.481637 C 729.109803 577.463181 729.053176 582.078325 729.053176 586.382017 L 729.053176 607.881602 L 733.640005 607.881602 C 735.225575 607.881602 736.008923 607.220947 736.367563 607.220947 C 736.650701 607.220947 736.877211 607.494647 736.877211 608.023171 C 736.877211 608.627198 736.282622 611.335881 735.857916 612.185294 C 735.56534 612.789321 735.272765 613.063021 734.281783 613.063021 L 729.043738 613.063021 C 729.043738 615.167677 728.996548 618.15006 729.223058 621.038064 C 729.411817 623.114407 729.770458 624.294147 731.724107 624.756605 C 732.554644 624.945364 733.819325 625.030305 734.413914 625.030305 C 734.715928 625.030305 734.942438 625.219063 734.942438 625.690959 C 734.942438 626.14398 734.640424 626.285548 733.989208 626.285548 C 730.657622 626.285548 726.85414 626.077914 725.617773 626.077914 C 723.956699 626.077914 720.747806 626.285548 717.46341 626.285548 C 716.812194 626.285548 716.51018 626.14398 716.51018 625.690959 C 716.51018 625.219063 716.689501 625.030305 716.982076 625.030305 C 717.5106 625.030305 718.831909 624.945364 719.775701 624.822671 C 722.050239 624.548971 722.446632 623.123845 722.578763 621.038064 C 722.805273 618.140622 722.758083 615.158239 722.758083 613.063021 Z M 704.476833 613.063021 " transform="matrix(0.413889,0,0,0.413889,-35.383719,-32.747733)"/><path style=" stroke:none;fill-rule:evenodd;fill:#6ebd47;fill-opacity:1;" d="M 272.378906 226.355469 C 271.96875 226.105469 271.921875 225.863281 271.921875 225.292969 C 271.921875 224.378906 271.890625 222.742188 272.027344 221.839844 C 272.078125 221.5625 272.148438 221.347656 272.296875 221.347656 C 272.472656 221.347656 272.515625 221.507812 272.515625 221.800781 C 272.515625 224.734375 274.140625 225.480469 275.867188 225.480469 C 277.835938 225.480469 279.929688 224.023438 279.929688 220.464844 C 279.929688 216.085938 275.640625 214.289062 273.699219 213.984375 C 273.410156 213.929688 273.238281 213.789062 273.257812 213.429688 L 273.820312 206.207031 C 273.84375 205.925781 274.015625 205.847656 274.289062 205.847656 L 280.324219 205.847656 C 281.003906 205.847656 281.425781 205.8125 281.695312 205.761719 C 281.972656 205.730469 282.117188 205.652344 282.191406 205.652344 C 282.386719 205.652344 282.433594 205.761719 282.433594 206.164062 C 282.433594 206.746094 282.363281 207.945312 282.117188 209.664062 C 282.09375 209.828125 282.023438 210.003906 281.855469 210.003906 C 281.695312 210.003906 281.660156 209.835938 281.660156 209.609375 C 281.660156 208.847656 281.480469 208.132812 279.492188 208.132812 L 275.015625 208.128906 L 274.664062 211.46875 C 278.332031 212.132812 282.808594 214.378906 282.808594 219.140625 C 282.808594 222.769531 280.417969 226.824219 274.710938 226.824219 C 273.914062 226.839844 273.003906 226.683594 272.378906 226.355469 "/><path style="fill:none;stroke-width:0.9;stroke-linecap:butt;stroke-linejoin:round;stroke:#70be47;stroke-opacity:1;stroke-miterlimit:22.926001;" d="M 743.587572 626.021287 C 742.596591 625.41726 742.483335 624.832109 742.483335 623.454172 C 742.483335 621.245698 742.407832 617.291209 742.738159 615.11105 C 742.860852 614.440957 743.030735 613.921871 743.389376 613.921871 C 743.814082 613.921871 743.917899 614.308826 743.917899 615.01667 C 743.917899 622.104549 747.844074 623.907192 752.015634 623.907192 C 756.772346 623.907192 761.831071 620.386848 761.831071 611.788901 C 761.831071 601.208991 751.468235 596.867547 746.777589 596.13139 C 746.079183 595.999259 745.663914 595.659494 745.711104 594.791205 L 747.070164 577.340488 C 747.126792 576.660958 747.54206 576.472199 748.202715 576.472199 L 762.784301 576.472199 C 764.426499 576.472199 765.445794 576.387258 766.097011 576.264565 C 766.767103 576.189062 767.116306 576.000303 767.295626 576.000303 C 767.767522 576.000303 767.880777 576.264565 767.880777 577.236671 C 767.880777 578.642921 767.710895 581.540363 767.116306 585.693049 C 767.059678 586.089441 766.889796 586.514148 766.483965 586.514148 C 766.097011 586.514148 766.012069 586.108317 766.012069 585.560918 C 766.012069 583.720523 765.577925 581.993383 760.774024 581.993383 L 749.958168 581.983945 L 749.108755 590.053368 C 757.970962 591.657815 768.786818 597.08462 768.786818 608.589446 C 768.786818 617.357275 763.010811 627.153837 749.22201 627.153837 C 747.296675 627.191589 745.097639 626.814072 743.587572 626.021287 Z M 743.587572 626.021287 " transform="matrix(0.413889,0,0,0.413889,-35.383719,-32.747733)"/><path style="fill-rule:evenodd;fill:#6ebd47;fill-opacity:1;stroke-width:0.9;stroke-linecap:butt;stroke-linejoin:round;stroke:#70be47;stroke-opacity:1;stroke-miterlimit:22.926001;" d="M 806.170418 576.481637 C 807.29353 576.481637 807.586106 576.670396 807.586106 577.000723 C 807.586106 577.368802 807.350158 577.925639 807.170837 578.189901 C 802.225367 585.976186 792.947892 612.251359 792.05129 620.726613 C 791.938035 621.83085 792.05129 622.312184 792.05129 623.161596 C 792.05129 624.501781 787.237951 627.201027 784.56702 627.201027 C 783.915803 627.201027 783.736483 626.993393 783.736483 626.408241 C 783.736483 625.728711 783.8403 624.747167 784.161189 623.69012 C 785.812825 617.347837 793.429226 597.839653 801.630778 582.550221 L 786.209218 582.550221 C 784.538706 582.550221 782.056533 582.701228 780.621969 583.739399 C 779.536608 584.513308 778.781575 586.636841 778.649444 587.68445 C 778.592816 588.212974 778.422934 588.552739 778.073731 588.552739 C 777.649024 588.552739 777.582959 588.212974 777.582959 587.552319 C 777.582959 585.09846 778.470123 577.349926 778.470123 576.717585 C 778.470123 576.056931 778.715509 575.773793 779.083588 575.773793 C 779.451667 575.773793 780.80129 576.443886 787.115258 576.443886 L 806.16098 576.443886 L 806.16098 576.481637 Z M 806.170418 576.481637 " transform="matrix(0.413889,0,0,0.413889,-35.383719,-32.747733)"/><path style="fill-rule:evenodd;fill:#6ebd47;fill-opacity:1;stroke-width:0.9;stroke-linecap:butt;stroke-linejoin:round;stroke:#70be47;stroke-opacity:1;stroke-miterlimit:22.926001;" d="M 841.836317 576.481637 C 842.968867 576.481637 843.261442 576.670396 843.261442 577.000723 C 843.261442 577.368802 843.016057 577.925639 842.855612 578.189901 C 837.91958 585.976186 828.632667 612.251359 827.736064 620.726613 C 827.641685 621.83085 827.736064 622.312184 827.736064 623.161596 C 827.736064 624.501781 822.932163 627.201027 820.261232 627.201027 C 819.610016 627.201027 819.440133 626.993393 819.440133 626.408241 C 819.440133 625.728711 819.553388 624.747167 819.836526 623.69012 C 821.4976 617.347837 829.114001 597.839653 837.306115 582.550221 L 821.922306 582.550221 C 820.251794 582.550221 817.750745 582.701228 816.32562 583.739399 C 815.249697 584.513308 814.485225 586.636841 814.362532 587.68445 C 814.296467 588.212974 814.126584 588.552739 813.758505 588.552739 C 813.343237 588.552739 813.286609 588.212974 813.286609 587.552319 C 813.286609 585.09846 814.202088 577.349926 814.202088 576.717585 C 814.202088 576.056931 814.438036 575.773793 814.796677 575.773793 C 815.155317 575.773793 816.514378 576.443886 822.828346 576.443886 L 841.826879 576.443886 L 841.826879 576.481637 Z M 841.836317 576.481637 " transform="matrix(0.413889,0,0,0.413889,-35.383719,-32.747733)"/><path style="fill-rule:evenodd;fill:#6ebd47;fill-opacity:1;stroke-width:0.9;stroke-linecap:butt;stroke-linejoin:round;stroke:#70be47;stroke-opacity:1;stroke-miterlimit:22.926001;" d="M 877.521091 576.481637 C 878.663079 576.481637 878.955655 576.670396 878.955655 577.000723 C 878.955655 577.368802 878.700831 577.925639 878.540386 578.189901 C 873.604354 585.976186 864.336317 612.251359 863.439715 620.726613 C 863.32646 621.83085 863.439715 622.312184 863.439715 623.161596 C 863.439715 624.501781 858.626376 627.201027 855.936569 627.201027 C 855.285352 627.201027 855.106032 626.993393 855.106032 626.408241 C 855.106032 625.728711 855.238163 624.747167 855.530738 623.69012 C 857.20125 617.347837 864.808213 597.839653 873.019203 582.550221 L 857.597643 582.550221 C 855.927131 582.550221 853.43552 582.701228 852.010394 583.739399 C 850.934471 584.513308 850.17 586.636841 850.037869 587.68445 C 849.981241 588.212974 849.811359 588.552739 849.44328 588.552739 C 849.037449 588.552739 848.971384 588.212974 848.971384 587.552319 C 848.971384 585.09846 849.877424 577.349926 849.877424 576.717585 C 849.877424 576.056931 850.113372 575.773793 850.462575 575.773793 C 850.821216 575.773793 852.199152 576.443886 858.494245 576.443886 L 877.511653 576.443886 L 877.511653 576.481637 Z M 877.521091 576.481637 " transform="matrix(0.413889,0,0,0.413889,-35.383719,-32.747733)"/><path style=" stroke:none;fill-rule:evenodd;fill:#ffffff;fill-opacity:1;" d="M 129.367188 206.675781 C 127.519531 206.675781 126.203125 209.492188 126.203125 215.730469 C 126.203125 220.460938 127.253906 225.671875 129.957031 225.671875 C 131.953125 225.671875 133.175781 221.914062 133.175781 216.613281 C 133.175781 211.871094 132.054688 206.675781 129.367188 206.675781 M 129.488281 226.902344 C 124.644531 226.902344 123.308594 220.652344 123.308594 216.769531 C 123.308594 210.382812 125.324219 205.433594 129.882812 205.433594 C 134.75 205.433594 136.0625 211.171875 136.0625 215.542969 C 136.0625 222.324219 133.730469 226.902344 129.488281 226.902344 "/><path style="fill:none;stroke-width:0.525;stroke-linecap:butt;stroke-linejoin:round;stroke:#ffffff;stroke-opacity:1;stroke-miterlimit:22.926001;" d="M 398.055893 578.473039 C 393.591757 578.473039 390.411178 585.27778 390.411178 600.35014 C 390.411178 611.779463 392.949978 624.36965 399.481018 624.36965 C 404.303795 624.36965 407.257864 615.29037 407.257864 602.483111 C 407.257864 591.025474 404.549181 578.473039 398.055893 578.473039 Z M 398.348468 627.342596 C 386.645448 627.342596 383.417679 612.241921 383.417679 602.860628 C 383.417679 587.429626 388.287646 575.47178 399.301698 575.47178 C 411.061346 575.47178 414.232487 589.336086 414.232487 599.89712 C 414.232487 616.281352 408.598049 627.342596 398.348468 627.342596 Z M 398.348468 627.342596 " transform="matrix(0.413889,0,0,0.413889,-35.383719,-32.747733)"/><path style=" stroke:none;fill-rule:evenodd;fill:#ffffff;fill-opacity:1;" d="M 144.136719 206.675781 C 142.292969 206.675781 140.957031 209.492188 140.957031 215.730469 C 140.957031 220.460938 142.019531 225.671875 144.722656 225.671875 C 146.714844 225.671875 147.945312 221.914062 147.945312 216.613281 C 147.949219 211.871094 146.8125 206.675781 144.136719 206.675781 M 144.261719 226.902344 C 139.417969 226.902344 138.078125 220.652344 138.078125 216.769531 C 138.078125 210.382812 140.101562 205.433594 144.648438 205.433594 C 149.523438 205.433594 150.824219 211.171875 150.824219 215.542969 C 150.828125 222.324219 148.492188 226.902344 144.261719 226.902344 "/><path style="fill:none;stroke-width:0.525;stroke-linecap:butt;stroke-linejoin:round;stroke:#ffffff;stroke-opacity:1;stroke-miterlimit:22.926001;" d="M 433.740667 578.473039 C 429.285969 578.473039 426.0582 585.27778 426.0582 600.35014 C 426.0582 611.779463 428.625315 624.36965 435.156355 624.36965 C 439.969694 624.36965 442.942639 615.29037 442.942639 602.483111 C 442.952077 591.025474 440.205642 578.473039 433.740667 578.473039 Z M 434.042681 627.342596 C 422.33966 627.342596 419.102454 612.241921 419.102454 602.860628 C 419.102454 587.429626 423.991296 575.47178 434.977035 575.47178 C 446.755558 575.47178 449.898386 589.336086 449.898386 599.89712 C 449.907824 616.281352 444.263948 627.342596 434.042681 627.342596 Z M 434.042681 627.342596 " transform="matrix(0.413889,0,0,0.413889,-35.383719,-32.747733)"/><path style=" stroke:none;fill-rule:evenodd;fill:#ffffff;fill-opacity:1;" d="M 165.378906 212.882812 C 165.378906 220.546875 159.339844 225.367188 156.296875 226.949219 C 156.167969 227.039062 156.054688 227.0625 155.859375 227.0625 C 155.761719 227.0625 155.625 226.929688 155.625 226.792969 C 155.625 226.597656 155.804688 226.433594 155.929688 226.324219 C 158.480469 224.601562 162.324219 220.105469 162.324219 213.65625 C 162.324219 208.800781 160.472656 206.683594 158.585938 206.683594 C 156.8125 206.683594 155.617188 208.433594 155.617188 210.757812 C 155.617188 214.945312 158.058594 215.929688 158.898438 215.929688 C 159.761719 215.929688 160.257812 215.769531 160.566406 215.597656 C 160.839844 215.445312 160.960938 215.300781 161.066406 215.300781 C 161.164062 215.300781 161.265625 215.402344 161.265625 215.546875 C 161.265625 215.625 161.1875 215.785156 161.140625 215.84375 C 160.421875 216.695312 159.148438 217.09375 157.890625 217.09375 C 154.347656 217.09375 152.875 214.113281 152.875 211.8125 C 152.875 208.113281 155.382812 205.4375 159.171875 205.4375 C 163.1875 205.4375 165.378906 208.722656 165.378906 212.882812 "/><path style="fill:none;stroke-width:0.525;stroke-linecap:butt;stroke-linejoin:round;stroke:#ffffff;stroke-opacity:1;stroke-miterlimit:22.926001;" d="M 485.064075 593.469896 C 485.064075 611.987098 470.473051 623.633493 463.120911 627.455851 C 462.80946 627.672923 462.53576 627.72955 462.063864 627.72955 C 461.827916 627.72955 461.497589 627.408661 461.497589 627.078334 C 461.497589 626.606438 461.931733 626.210045 462.233747 625.945783 C 468.396708 621.78366 477.683621 610.920612 477.683621 595.338604 C 477.683621 583.607268 473.210047 578.491915 468.651532 578.491915 C 464.366717 578.491915 461.478713 582.720103 461.478713 588.335667 C 461.478713 598.453118 467.377413 600.831474 469.406566 600.831474 C 471.492346 600.831474 472.690962 600.44452 473.436557 600.029251 C 474.097212 599.661172 474.389787 599.311969 474.644611 599.311969 C 474.880559 599.311969 475.125945 599.557355 475.125945 599.906558 C 475.125945 600.095317 474.937187 600.482271 474.823932 600.62384 C 473.087354 602.681307 470.010593 603.643975 466.971582 603.643975 C 458.411389 603.643975 454.853294 596.442841 454.853294 590.883905 C 454.853294 581.946194 460.912438 575.481218 470.06722 575.481218 C 479.769402 575.481218 485.064075 583.41851 485.064075 593.469896 Z M 485.064075 593.469896 " transform="matrix(0.413889,0,0,0.413889,-35.383719,-32.747733)"/><path style=" stroke:none;fill-rule:evenodd;fill:#ffffff;fill-opacity:1;" d="M 167.613281 219.050781 C 167.613281 213.714844 171.402344 207.992188 176.746094 205.59375 C 176.964844 205.496094 177.164062 205.441406 177.289062 205.441406 C 177.4375 205.441406 177.585938 205.535156 177.585938 205.699219 C 177.585938 205.9375 177.246094 206.128906 176.96875 206.296875 C 174.09375 208.101562 170.695312 212.539062 170.695312 219.078125 C 170.695312 222.277344 171.949219 225.699219 174.441406 225.699219 C 176.140625 225.699219 177.539062 224.28125 177.539062 221.101562 C 177.539062 217.300781 175.695312 215.636719 174.074219 215.636719 C 173.457031 215.636719 173.140625 215.714844 172.789062 215.828125 C 172.59375 215.882812 172.371094 215.984375 172.246094 215.984375 C 172.152344 215.984375 172.054688 215.902344 172.054688 215.710938 C 172.054688 215.519531 172.179688 215.410156 172.320312 215.304688 C 173.058594 214.730469 174.164062 214.316406 175.515625 214.316406 C 178.984375 214.316406 180.542969 217.441406 180.542969 219.875 C 180.542969 224.113281 177.714844 226.914062 174.117188 226.914062 C 170.320312 226.902344 167.613281 224.003906 167.613281 219.050781 "/><path style="fill:none;stroke-width:0.525;stroke-linecap:butt;stroke-linejoin:round;stroke:#ffffff;stroke-opacity:1;stroke-miterlimit:22.926001;" d="M 490.462565 608.372374 C 490.462565 595.480173 499.617347 581.653618 512.528421 575.858735 C 513.056945 575.622786 513.538278 575.490656 513.840292 575.490656 C 514.198933 575.490656 514.557574 575.717166 514.557574 576.113558 C 514.557574 576.689272 513.736475 577.15173 513.066382 577.55756 C 506.120074 581.91788 497.909083 592.639359 497.909083 608.438439 C 497.909083 616.168097 500.938656 624.435716 506.960048 624.435716 C 511.065543 624.435716 514.444319 621.00975 514.444319 613.327282 C 514.444319 604.144185 509.989621 600.12363 506.072884 600.12363 C 504.581693 600.12363 503.817221 600.312389 502.967808 600.586089 C 502.495912 600.718219 501.957951 600.963605 501.655938 600.963605 C 501.429427 600.963605 501.193479 600.765409 501.193479 600.302951 C 501.193479 599.840493 501.495493 599.576231 501.835258 599.321407 C 503.619025 597.934033 506.289956 596.933613 509.555476 596.933613 C 517.936349 596.933613 521.702079 604.48395 521.702079 610.363775 C 521.702079 620.60392 514.869025 627.370909 506.176701 627.370909 C 497.003043 627.342596 490.462565 620.339658 490.462565 608.372374 Z M 490.462565 608.372374 " transform="matrix(0.413889,0,0,0.413889,-35.383719,-32.747733)"/><path style="fill-rule:evenodd;fill:#ffffff;fill-opacity:1;stroke-width:0.525;stroke-linecap:butt;stroke-linejoin:round;stroke:#ffffff;stroke-opacity:1;stroke-miterlimit:22.926001;" d="M 526.864621 626.210045 C 526.439915 626.210045 526.00577 625.82309 526.00577 625.275691 C 526.00577 624.756605 526.628673 624.171454 527.204386 623.557989 C 535.528631 615.413063 547.363783 605.116291 547.363783 591.138729 C 547.363783 580.709826 542.182365 578.576856 539.199982 578.576856 C 536.651744 578.576856 534.688657 579.095942 532.895452 580.945774 C 531.460888 582.493593 530.403841 585.579794 530.403841 587.306933 C 530.403841 587.967588 530.205645 588.562177 529.620494 588.562177 C 529.327918 588.562177 529.148598 588.090281 529.09197 587.306933 C 529.054219 586.712344 528.742767 581.228912 528.742767 579.294138 C 528.742767 578.708987 528.799395 578.473039 529.450611 578.001143 C 531.772339 576.660958 534.981232 575.47178 540.20984 575.47178 C 550.676493 575.47178 555.140629 581.832939 555.140629 589.553158 C 555.140629 602.407607 542.361685 613.572668 534.688657 620.367972 C 534.377205 620.660547 534.499898 620.839868 534.820787 620.839868 L 538.850779 620.839868 C 539.870075 620.839868 546.901325 620.764364 549.072046 620.452913 C 553.177541 619.896076 555.140629 617.659288 555.876786 614.591964 C 556.027793 613.751989 556.225989 613.525479 556.565755 613.525479 C 556.990461 613.525479 557.056526 614.11063 557.056526 614.771284 C 557.056526 615.800018 555.933414 621.981856 555.319949 624.228082 C 554.848053 626.021287 553.885385 626.210045 550.147969 626.210045 L 526.836307 626.210045 Z M 526.864621 626.210045 " transform="matrix(0.413889,0,0,0.413889,-35.383719,-32.747733)"/><path style=" stroke:none;fill-rule:evenodd;fill:#ffffff;fill-opacity:1;" d="M 205.9375 226.410156 C 205.523438 226.160156 205.46875 225.917969 205.46875 225.335938 C 205.46875 224.441406 205.445312 222.792969 205.570312 221.886719 C 205.621094 221.625 205.691406 221.390625 205.832031 221.390625 C 206.007812 221.390625 206.058594 221.558594 206.058594 221.859375 C 206.058594 224.789062 207.679688 225.53125 209.40625 225.53125 C 211.371094 225.53125 213.472656 224.078125 213.472656 220.515625 C 213.472656 216.152344 209.1875 214.335938 207.242188 214.035156 C 206.945312 213.980469 206.773438 213.839844 206.804688 213.496094 L 207.367188 206.253906 C 207.390625 205.984375 207.5625 205.902344 207.832031 205.902344 L 213.863281 205.902344 C 214.546875 205.902344 214.976562 205.867188 215.242188 205.8125 C 215.511719 205.792969 215.652344 205.703125 215.738281 205.703125 C 215.933594 205.703125 215.980469 205.8125 215.980469 206.214844 C 215.980469 206.804688 215.910156 208 215.652344 209.722656 C 215.640625 209.886719 215.5625 210.050781 215.390625 210.050781 C 215.242188 210.050781 215.195312 209.890625 215.195312 209.667969 C 215.195312 208.902344 215.023438 208.179688 213.027344 208.179688 L 208.554688 208.175781 L 208.203125 211.519531 C 211.875 212.1875 216.347656 214.4375 216.347656 219.1875 C 216.347656 222.828125 213.960938 226.878906 208.246094 226.878906 C 207.457031 226.902344 206.546875 226.742188 205.9375 226.410156 "/><path style="fill:none;stroke-width:0.525;stroke-linecap:butt;stroke-linejoin:round;stroke:#ffffff;stroke-opacity:1;stroke-miterlimit:22.926001;" d="M 583.057995 626.153418 C 582.057576 625.549391 581.925445 624.964239 581.925445 623.557989 C 581.925445 621.396705 581.868817 617.413902 582.170831 615.224305 C 582.293524 614.591964 582.463406 614.025689 582.803171 614.025689 C 583.227878 614.025689 583.350571 614.431519 583.350571 615.158239 C 583.350571 622.23668 587.267307 624.029885 591.438868 624.029885 C 596.186142 624.029885 601.263742 620.518978 601.263742 611.911594 C 601.263742 601.369436 590.910344 596.980803 586.21026 596.254083 C 585.492979 596.121952 585.07771 595.782187 585.153213 594.951649 L 586.512274 577.453743 C 586.568901 576.802527 586.98417 576.60433 587.635386 576.60433 L 602.207534 576.60433 C 603.85917 576.60433 604.897342 576.519389 605.53912 576.387258 C 606.190337 576.340068 606.530102 576.122996 606.737736 576.122996 C 607.209632 576.122996 607.322887 576.387258 607.322887 577.359364 C 607.322887 578.78449 607.153004 581.672494 606.530102 585.834617 C 606.501788 586.23101 606.313029 586.627403 605.897761 586.627403 C 605.53912 586.627403 605.425865 586.240448 605.425865 585.702487 C 605.425865 583.852654 605.010597 582.106638 600.18782 582.106638 L 589.381401 582.097201 L 588.531989 590.176061 C 597.403633 591.789946 608.210051 597.226189 608.210051 608.702701 C 608.210051 617.498844 602.443482 627.285968 588.635806 627.285968 C 586.729346 627.342596 584.530311 626.955641 583.057995 626.153418 Z M 583.057995 626.153418 " transform="matrix(0.413889,0,0,0.413889,-35.383719,-32.747733)"/><path style=" stroke:none;fill-rule:evenodd;fill:#ffffff;fill-opacity:1;" d="M 227.515625 226.242188 C 227.144531 226.027344 227.101562 225.808594 227.101562 225.480469 C 227.101562 224.191406 227.171875 222.65625 227.273438 222.046875 C 227.324219 221.726562 227.394531 221.53125 227.542969 221.53125 C 227.6875 221.53125 227.761719 221.699219 227.761719 221.917969 C 227.761719 223.675781 228.976562 225.558594 231.457031 225.558594 C 233.886719 225.558594 235.914062 224.140625 235.914062 220.882812 C 235.914062 217.210938 232.957031 215.933594 231.753906 215.679688 C 231.109375 215.546875 230.96875 215.449219 230.96875 215.222656 C 230.96875 215.035156 231.136719 214.894531 231.410156 214.828125 C 232.523438 214.589844 235.230469 213.320312 235.230469 210.117188 C 235.230469 208.964844 234.46875 206.757812 231.957031 206.757812 C 230.007812 206.757812 228.535156 208.027344 228.535156 209.65625 C 228.535156 209.980469 228.429688 210.070312 228.308594 210.070312 C 228.214844 210.070312 228.132812 209.980469 228.105469 209.683594 C 228.011719 208.796875 227.933594 207.578125 227.933594 206.949219 C 227.933594 206.699219 227.960938 206.601562 228.285156 206.429688 C 229.117188 206.023438 230.59375 205.449219 232.636719 205.449219 C 237.355469 205.449219 238.21875 208.207031 238.21875 209.503906 C 238.21875 212.175781 235.605469 214.046875 234.628906 214.425781 L 234.628906 214.480469 C 236.445312 214.949219 239.003906 216.566406 239.003906 219.878906 C 239.003906 223.707031 236.03125 226.917969 231.230469 226.917969 C 229.488281 226.902344 228.085938 226.59375 227.515625 226.242188 "/><path style="fill:none;stroke-width:0.525;stroke-linecap:butt;stroke-linejoin:round;stroke:#ffffff;stroke-opacity:1;stroke-miterlimit:22.926001;" d="M 635.193064 625.747587 C 634.296462 625.228501 634.192644 624.699978 634.192644 623.907192 C 634.192644 620.792678 634.362527 617.083575 634.607913 615.611259 C 634.730606 614.83735 634.900488 614.365454 635.259129 614.365454 C 635.608332 614.365454 635.787653 614.771284 635.787653 615.299808 C 635.787653 619.546873 638.722846 624.095951 644.715925 624.095951 C 650.586311 624.095951 655.484591 620.669985 655.484591 612.798759 C 655.484591 603.927113 648.340086 600.840912 645.433207 600.227448 C 643.87595 599.906558 643.536185 599.67061 643.536185 599.123211 C 643.536185 598.67019 643.942015 598.330425 644.60267 598.169981 C 647.292477 597.594267 653.832955 594.526943 653.832955 586.787847 C 653.832955 584.003661 651.992561 578.671235 645.923979 578.671235 C 641.214457 578.671235 637.656361 581.73856 637.656361 585.674173 C 637.656361 586.45752 637.401537 586.674592 637.108962 586.674592 C 636.882452 586.674592 636.684255 586.45752 636.61819 585.740238 C 636.39168 583.59783 636.202921 580.653199 636.202921 579.133693 C 636.202921 578.529666 636.268987 578.293718 637.052334 577.87845 C 639.062611 576.896906 642.630145 575.509531 647.566177 575.509531 C 658.967184 575.509531 661.052964 582.172704 661.052964 585.306094 C 661.052964 591.761632 654.738996 596.282396 652.379516 597.197875 L 652.379516 597.330006 C 656.768148 598.462556 662.949986 602.369856 662.949986 610.373213 C 662.949986 619.622376 655.767729 627.380347 644.168526 627.380347 C 639.959213 627.342596 636.571 626.597 635.193064 625.747587 Z M 635.193064 625.747587 " transform="matrix(0.413889,0,0,0.413889,-35.383719,-32.747733)"/><path style=" stroke:none;fill-rule:evenodd;fill:#ffffff;fill-opacity:1;" d="M 247.992188 206.609375 C 245.855469 206.609375 244.992188 208.308594 244.992188 209.839844 C 244.992188 211.535156 246.046875 212.667969 248.292969 214.058594 C 249 213.707031 250.703125 212.632812 250.703125 209.863281 C 250.703125 207.816406 249.46875 206.609375 247.992188 206.609375 M 247.84375 225.644531 C 249.765625 225.644531 251.308594 224.023438 251.308594 221.503906 C 251.308594 218.773438 249.347656 217.480469 247.148438 216.0625 C 245.824219 216.914062 244.242188 218.578125 244.242188 221.371094 C 244.253906 223.804688 245.859375 225.644531 247.84375 225.644531 M 241.480469 221.53125 C 241.480469 218.5 243.617188 216.472656 246 215.402344 C 243.957031 214.222656 242.429688 212.726562 242.429688 210.386719 C 242.429688 208.265625 244.074219 205.4375 248.261719 205.4375 C 251.265625 205.4375 253.308594 206.972656 253.308594 209.625 C 253.308594 212.503906 251.042969 214.117188 249.6875 214.695312 C 251.4375 215.734375 254.160156 217.429688 254.160156 220.816406 C 254.160156 224.054688 251.777344 226.90625 247.640625 226.90625 C 244.007812 226.902344 241.480469 224.898438 241.480469 221.53125 "/><path style="fill:none;stroke-width:0.525;stroke-linecap:butt;stroke-linejoin:round;stroke:#ffffff;stroke-opacity:1;stroke-miterlimit:22.926001;" d="M 684.666639 578.312594 C 679.504097 578.312594 677.418317 582.41809 677.418317 586.117755 C 677.418317 590.213813 679.966555 592.95081 685.393359 596.31071 C 687.101622 595.461297 691.216555 592.865869 691.216555 586.174383 C 691.216555 581.228912 688.234173 578.312594 684.666639 578.312594 Z M 684.307998 624.303585 C 688.951455 624.303585 692.679433 620.386848 692.679433 614.299388 C 692.679433 607.702281 687.941597 604.578329 682.628048 601.152364 C 679.428594 603.209831 675.606236 607.230385 675.606236 613.978499 C 675.63455 619.858324 679.513535 624.303585 684.307998 624.303585 Z M 668.933627 614.365454 C 668.933627 607.041627 674.096169 602.143346 679.8533 599.557355 C 674.917268 596.707103 671.227041 593.092379 671.227041 587.439064 C 671.227041 582.314273 675.200406 575.481218 685.317856 575.481218 C 692.575616 575.481218 697.511648 579.190321 697.511648 585.598669 C 697.511648 592.554417 692.037654 596.452279 688.762696 597.849091 C 692.990884 600.359578 699.569114 604.455636 699.569114 612.638314 C 699.569114 620.462351 693.811983 627.352034 683.817226 627.352034 C 675.039961 627.342596 668.933627 622.500942 668.933627 614.365454 Z M 668.933627 614.365454 " transform="matrix(0.413889,0,0,0.413889,-35.383719,-32.747733)"/><path style="fill-rule:evenodd;fill:#ffffff;fill-opacity:1;stroke-width:0.525;stroke-linecap:butt;stroke-linejoin:round;stroke:#ffffff;stroke-opacity:1;stroke-miterlimit:22.926001;" d="M 722.729769 587.590071 L 722.559887 587.590071 C 721.200826 589.760793 711.328762 605.069101 709.309048 608.051484 L 722.739207 608.051484 L 722.739207 587.590071 Z M 704.476833 613.176276 C 703.759551 613.176276 702.985641 612.912014 702.985641 612.175856 C 702.985641 611.383071 703.523603 610.779044 703.759551 610.47703 C 704.193695 609.929631 726.363369 577.33105 726.844702 576.660958 C 727.326036 576.075807 727.797932 575.47178 728.392521 575.47178 C 728.930483 575.47178 729.109803 575.915362 729.109803 576.585454 C 729.109803 577.566998 729.053176 582.201018 729.053176 586.495272 L 729.053176 608.004295 L 733.640005 608.004295 C 735.225575 608.004295 736.008923 607.315326 736.367563 607.315326 C 736.650701 607.315326 736.877211 607.589026 736.877211 608.136426 C 736.877211 608.721577 736.282622 611.439698 735.857916 612.289111 C 735.56534 612.893138 735.272765 613.1574 734.281783 613.1574 L 729.043738 613.1574 C 729.043738 615.271494 728.996548 618.253877 729.223058 621.179633 C 729.411817 623.208786 729.770458 624.397964 731.724107 624.86986 C 732.554644 625.058619 733.819325 625.14356 734.413914 625.14356 C 734.715928 625.14356 734.942438 625.332318 734.942438 625.804214 C 734.942438 626.257235 734.640424 626.398803 733.989208 626.398803 C 730.657622 626.398803 726.85414 626.191169 725.617773 626.191169 C 723.956699 626.191169 720.747806 626.398803 717.46341 626.398803 C 716.812194 626.398803 716.51018 626.266673 716.51018 625.804214 C 716.51018 625.332318 716.689501 625.14356 716.982076 625.14356 C 717.5106 625.14356 718.831909 625.058619 719.775701 624.926488 C 722.050239 624.662226 722.446632 623.208786 722.578763 621.179633 C 722.805273 618.253877 722.758083 615.271494 722.758083 613.1574 Z M 704.476833 613.176276 " transform="matrix(0.413889,0,0,0.413889,-35.383719,-32.747733)"/><path style=" stroke:none;fill-rule:evenodd;fill:#ffffff;fill-opacity:1;" d="M 272.378906 226.410156 C 271.96875 226.160156 271.921875 225.917969 271.921875 225.335938 C 271.921875 224.441406 271.890625 222.792969 272.027344 221.886719 C 272.078125 221.625 272.148438 221.390625 272.296875 221.390625 C 272.472656 221.390625 272.515625 221.558594 272.515625 221.859375 C 272.515625 224.789062 274.140625 225.53125 275.867188 225.53125 C 277.835938 225.53125 279.929688 224.078125 279.929688 220.515625 C 279.929688 216.152344 275.640625 214.335938 273.699219 214.035156 C 273.410156 213.980469 273.238281 213.839844 273.257812 213.496094 L 273.820312 206.253906 C 273.84375 205.984375 274.015625 205.902344 274.289062 205.902344 L 280.324219 205.902344 C 281.003906 205.902344 281.425781 205.867188 281.695312 205.8125 C 281.972656 205.792969 282.117188 205.703125 282.191406 205.703125 C 282.386719 205.703125 282.433594 205.8125 282.433594 206.214844 C 282.433594 206.804688 282.363281 208 282.117188 209.722656 C 282.09375 209.886719 282.023438 210.050781 281.855469 210.050781 C 281.695312 210.050781 281.660156 209.890625 281.660156 209.667969 C 281.660156 208.902344 281.480469 208.179688 279.492188 208.179688 L 275.015625 208.175781 L 274.664062 211.519531 C 278.332031 212.1875 282.808594 214.4375 282.808594 219.1875 C 282.808594 222.828125 280.417969 226.878906 274.710938 226.878906 C 273.914062 226.902344 273.003906 226.742188 272.378906 226.410156 "/><path style="fill:none;stroke-width:0.525;stroke-linecap:butt;stroke-linejoin:round;stroke:#ffffff;stroke-opacity:1;stroke-miterlimit:22.926001;" d="M 743.587572 626.153418 C 742.596591 625.549391 742.483335 624.964239 742.483335 623.557989 C 742.483335 621.396705 742.407832 617.413902 742.738159 615.224305 C 742.860852 614.591964 743.030735 614.025689 743.389376 614.025689 C 743.814082 614.025689 743.917899 614.431519 743.917899 615.158239 C 743.917899 622.23668 747.844074 624.029885 752.015634 624.029885 C 756.772346 624.029885 761.831071 620.518978 761.831071 611.911594 C 761.831071 601.369436 751.468235 596.980803 746.777589 596.254083 C 746.079183 596.121952 745.663914 595.782187 745.711104 594.951649 L 747.070164 577.453743 C 747.126792 576.802527 747.54206 576.60433 748.202715 576.60433 L 762.784301 576.60433 C 764.426499 576.60433 765.445794 576.519389 766.097011 576.387258 C 766.767103 576.340068 767.116306 576.122996 767.295626 576.122996 C 767.767522 576.122996 767.880777 576.387258 767.880777 577.359364 C 767.880777 578.78449 767.710895 581.672494 767.116306 585.834617 C 767.059678 586.23101 766.889796 586.627403 766.483965 586.627403 C 766.097011 586.627403 766.012069 586.240448 766.012069 585.702487 C 766.012069 583.852654 765.577925 582.106638 760.774024 582.106638 L 749.958168 582.097201 L 749.108755 590.176061 C 757.970962 591.789946 768.786818 597.226189 768.786818 608.702701 C 768.786818 617.498844 763.010811 627.285968 749.22201 627.285968 C 747.296675 627.342596 745.097639 626.955641 743.587572 626.153418 Z M 743.587572 626.153418 " transform="matrix(0.413889,0,0,0.413889,-35.383719,-32.747733)"/><path style="fill-rule:evenodd;fill:#ffffff;fill-opacity:1;stroke-width:0.525;stroke-linecap:butt;stroke-linejoin:round;stroke:#ffffff;stroke-opacity:1;stroke-miterlimit:22.926001;" d="M 806.170418 576.60433 C 807.29353 576.60433 807.586106 576.811965 807.586106 577.132854 C 807.586106 577.519809 807.350158 578.048332 807.170837 578.303156 C 802.225367 586.108317 792.947892 612.374052 792.05129 620.839868 C 791.938035 621.96298 792.05129 622.425439 792.05129 623.293727 C 792.05129 624.633912 787.237951 627.333158 784.56702 627.333158 C 783.915803 627.333158 783.736483 627.116086 783.736483 626.540372 C 783.736483 625.879718 783.8403 624.86986 784.161189 623.803375 C 785.812825 617.461092 793.429226 597.962346 801.630778 582.682352 L 786.209218 582.69179 C 784.538706 582.69179 782.056533 582.814483 780.621969 583.852654 C 779.536608 584.636001 778.781575 586.768972 778.649444 587.807143 C 778.592816 588.335667 778.422934 588.675432 778.073731 588.675432 C 777.649024 588.675432 777.582959 588.335667 777.582959 587.68445 C 777.582959 585.268342 778.470123 577.510371 778.470123 576.840278 C 778.470123 576.170186 778.715509 575.887048 779.083588 575.887048 C 779.451667 575.887048 780.80129 576.566579 787.115258 576.566579 L 806.16098 576.557141 L 806.16098 576.60433 Z M 806.170418 576.60433 " transform="matrix(0.413889,0,0,0.413889,-35.383719,-32.747733)"/><path style="fill-rule:evenodd;fill:#ffffff;fill-opacity:1;stroke-width:0.525;stroke-linecap:butt;stroke-linejoin:round;stroke:#ffffff;stroke-opacity:1;stroke-miterlimit:22.926001;" d="M 841.836317 576.60433 C 842.968867 576.60433 843.261442 576.811965 843.261442 577.132854 C 843.261442 577.519809 843.016057 578.048332 842.855612 578.303156 C 837.91958 586.108317 828.632667 612.374052 827.736064 620.839868 C 827.641685 621.96298 827.736064 622.425439 827.736064 623.293727 C 827.736064 624.633912 822.932163 627.333158 820.261232 627.333158 C 819.610016 627.333158 819.440133 627.116086 819.440133 626.540372 C 819.440133 625.879718 819.553388 624.86986 819.836526 623.803375 C 821.4976 617.461092 829.114001 597.962346 837.306115 582.682352 L 821.922306 582.69179 C 820.251794 582.69179 817.750745 582.814483 816.32562 583.852654 C 815.249697 584.636001 814.485225 586.768972 814.362532 587.807143 C 814.296467 588.335667 814.126584 588.675432 813.758505 588.675432 C 813.343237 588.675432 813.286609 588.335667 813.286609 587.68445 C 813.286609 585.268342 814.202088 577.510371 814.202088 576.840278 C 814.202088 576.170186 814.438036 575.887048 814.796677 575.887048 C 815.155317 575.887048 816.514378 576.566579 822.828346 576.566579 L 841.826879 576.557141 L 841.826879 576.60433 Z M 841.836317 576.60433 " transform="matrix(0.413889,0,0,0.413889,-35.383719,-32.747733)"/><path style="fill-rule:evenodd;fill:#ffffff;fill-opacity:1;stroke-width:0.525;stroke-linecap:butt;stroke-linejoin:round;stroke:#ffffff;stroke-opacity:1;stroke-miterlimit:22.926001;" d="M 877.521091 576.60433 C 878.663079 576.60433 878.955655 576.811965 878.955655 577.132854 C 878.955655 577.519809 878.700831 578.048332 878.540386 578.303156 C 873.604354 586.108317 864.336317 612.374052 863.439715 620.839868 C 863.32646 621.96298 863.439715 622.425439 863.439715 623.293727 C 863.439715 624.633912 858.626376 627.333158 855.936569 627.333158 C 855.285352 627.333158 855.106032 627.116086 855.106032 626.540372 C 855.106032 625.879718 855.238163 624.86986 855.530738 623.803375 C 857.20125 617.461092 864.808213 597.962346 873.019203 582.682352 L 857.597643 582.69179 C 855.927131 582.69179 853.43552 582.814483 852.010394 583.852654 C 850.934471 584.636001 850.17 586.768972 850.037869 587.807143 C 849.981241 588.335667 849.811359 588.675432 849.44328 588.675432 C 849.037449 588.675432 848.971384 588.335667 848.971384 587.68445 C 848.971384 585.268342 849.877424 577.510371 849.877424 576.840278 C 849.877424 576.170186 850.113372 575.887048 850.462575 575.887048 C 850.821216 575.887048 852.199152 576.566579 858.494245 576.566579 L 877.511653 576.557141 L 877.511653 576.60433 Z M 877.521091 576.60433 " transform="matrix(0.413889,0,0,0.413889,-35.383719,-32.747733)"/><path style=" stroke:none;fill-rule:evenodd;fill:#2e398d;fill-opacity:1;" d="M 129.367188 206.5625 C 127.519531 206.5625 126.203125 209.386719 126.203125 215.617188 C 126.203125 220.355469 127.253906 225.550781 129.957031 225.550781 C 131.953125 225.550781 133.175781 221.800781 133.175781 216.492188 C 133.175781 211.757812 132.054688 206.5625 129.367188 206.5625 M 129.488281 226.796875 C 124.644531 226.796875 123.308594 220.554688 123.308594 216.671875 C 123.308594 210.285156 125.324219 205.332031 129.882812 205.332031 C 134.75 205.332031 136.0625 211.078125 136.0625 215.445312 C 136.0625 222.214844 133.730469 226.796875 129.488281 226.796875 "/><path style=" stroke:none;fill-rule:evenodd;fill:#2e398d;fill-opacity:1;" d="M 144.136719 206.5625 C 142.292969 206.5625 140.957031 209.386719 140.957031 215.617188 C 140.957031 220.355469 142.019531 225.550781 144.722656 225.550781 C 146.714844 225.550781 147.945312 221.800781 147.945312 216.492188 C 147.949219 211.757812 146.8125 206.5625 144.136719 206.5625 M 144.261719 226.796875 C 139.417969 226.796875 138.078125 220.554688 138.078125 216.671875 C 138.078125 210.285156 140.101562 205.332031 144.648438 205.332031 C 149.523438 205.332031 150.824219 211.078125 150.824219 215.445312 C 150.828125 222.214844 148.492188 226.796875 144.261719 226.796875 "/><path style=" stroke:none;fill-rule:evenodd;fill:#2e398d;fill-opacity:1;" d="M 165.378906 212.78125 C 165.378906 220.433594 159.339844 225.257812 156.296875 226.839844 C 156.167969 226.929688 156.054688 226.949219 155.859375 226.949219 C 155.761719 226.949219 155.625 226.808594 155.625 226.679688 C 155.625 226.484375 155.804688 226.316406 155.929688 226.21875 C 158.480469 224.484375 162.324219 219.996094 162.324219 213.539062 C 162.324219 208.6875 160.472656 206.558594 158.585938 206.558594 C 156.8125 206.558594 155.617188 208.308594 155.617188 210.636719 C 155.617188 214.820312 158.058594 215.8125 158.898438 215.8125 C 159.761719 215.8125 160.257812 215.652344 160.566406 215.480469 C 160.839844 215.320312 160.960938 215.175781 161.066406 215.175781 C 161.164062 215.175781 161.265625 215.296875 161.265625 215.4375 C 161.265625 215.503906 161.1875 215.671875 161.140625 215.730469 C 160.421875 216.582031 159.148438 216.988281 157.890625 216.988281 C 154.347656 216.988281 152.875 214.003906 152.875 211.699219 C 152.875 207.996094 155.382812 205.324219 159.171875 205.324219 C 163.1875 205.328125 165.378906 208.617188 165.378906 212.78125 "/><path style=" stroke:none;fill-rule:evenodd;fill:#2e398d;fill-opacity:1;" d="M 167.613281 218.933594 C 167.613281 213.589844 171.402344 207.875 176.746094 205.492188 C 176.964844 205.378906 177.164062 205.328125 177.289062 205.328125 C 177.4375 205.328125 177.585938 205.40625 177.585938 205.570312 C 177.585938 205.816406 177.246094 206.007812 176.96875 206.171875 C 174.09375 207.976562 170.695312 212.421875 170.695312 218.964844 C 170.695312 222.152344 171.949219 225.585938 174.441406 225.585938 C 176.140625 225.585938 177.539062 224.160156 177.539062 220.988281 C 177.539062 217.183594 175.695312 215.503906 174.074219 215.503906 C 173.457031 215.503906 173.140625 215.59375 172.789062 215.699219 C 172.59375 215.761719 172.371094 215.871094 172.246094 215.871094 C 172.152344 215.871094 172.054688 215.785156 172.054688 215.59375 C 172.054688 215.398438 172.179688 215.296875 172.320312 215.171875 C 173.058594 214.605469 174.164062 214.199219 175.515625 214.199219 C 178.984375 214.199219 180.542969 217.3125 180.542969 219.757812 C 180.542969 224 177.714844 226.792969 174.117188 226.792969 C 170.320312 226.796875 167.613281 223.890625 167.613281 218.933594 "/><path style=" stroke:none;fill-rule:evenodd;fill:#2e398d;fill-opacity:1;" d="M 182.679688 226.320312 C 182.503906 226.320312 182.324219 226.160156 182.324219 225.941406 C 182.324219 225.722656 182.582031 225.472656 182.820312 225.230469 C 186.265625 221.855469 191.164062 217.597656 191.164062 211.808594 C 191.164062 207.484375 189.019531 206.613281 187.785156 206.613281 C 186.730469 206.613281 185.917969 206.839844 185.175781 207.597656 C 184.582031 208.226562 184.144531 209.507812 184.144531 210.222656 C 184.144531 210.496094 184.0625 210.753906 183.820312 210.753906 C 183.699219 210.753906 183.625 210.546875 183.601562 210.222656 C 183.585938 209.980469 183.457031 207.707031 183.457031 206.910156 C 183.457031 206.675781 183.480469 206.558594 183.75 206.363281 C 184.710938 205.816406 186.039062 205.328125 188.203125 205.328125 C 192.535156 205.328125 194.382812 207.953125 194.382812 211.15625 C 194.382812 216.472656 189.09375 221.089844 185.917969 223.921875 C 185.789062 224.019531 185.839844 224.097656 185.972656 224.097656 L 187.640625 224.101562 C 188.0625 224.101562 190.972656 224.074219 191.871094 223.941406 C 193.570312 223.722656 194.382812 222.789062 194.6875 221.503906 C 194.75 221.183594 194.832031 221.078125 194.972656 221.078125 C 195.148438 221.078125 195.175781 221.316406 195.175781 221.589844 C 195.175781 222.03125 194.710938 224.574219 194.457031 225.515625 C 194.261719 226.238281 193.863281 226.332031 192.316406 226.332031 L 182.667969 226.332031 L 182.667969 226.320312 Z M 182.679688 226.320312 "/><path style=" stroke:none;fill-rule:evenodd;fill:#2e398d;fill-opacity:1;" d="M 205.9375 226.300781 C 205.523438 226.046875 205.46875 225.804688 205.46875 225.230469 C 205.46875 224.324219 205.445312 222.679688 205.570312 221.777344 C 205.621094 221.5 205.691406 221.28125 205.832031 221.28125 C 206.007812 221.28125 206.058594 221.445312 206.058594 221.75 C 206.058594 224.679688 207.679688 225.417969 209.40625 225.417969 C 211.371094 225.417969 213.472656 223.964844 213.472656 220.40625 C 213.472656 216.03125 209.1875 214.21875 207.242188 213.925781 C 206.945312 213.863281 206.773438 213.730469 206.804688 213.371094 L 207.367188 206.136719 C 207.390625 205.863281 207.5625 205.789062 207.832031 205.789062 L 213.863281 205.789062 C 214.546875 205.789062 214.976562 205.753906 215.242188 205.695312 C 215.511719 205.671875 215.652344 205.574219 215.738281 205.574219 C 215.933594 205.574219 215.980469 205.695312 215.980469 206.109375 C 215.980469 206.675781 215.910156 207.878906 215.652344 209.605469 C 215.640625 209.765625 215.5625 209.933594 215.390625 209.933594 C 215.242188 209.933594 215.195312 209.769531 215.195312 209.550781 C 215.195312 208.777344 215.023438 208.066406 213.027344 208.066406 L 208.554688 208.066406 L 208.203125 211.410156 C 211.875 212.070312 216.347656 214.320312 216.347656 219.070312 C 216.347656 222.710938 213.960938 226.765625 208.246094 226.765625 C 207.457031 226.796875 206.546875 226.628906 205.9375 226.300781 "/><path style=" stroke:none;fill-rule:evenodd;fill:#2e398d;fill-opacity:1;" d="M 227.515625 226.128906 C 227.144531 225.910156 227.101562 225.691406 227.101562 225.367188 C 227.101562 224.078125 227.171875 222.542969 227.273438 221.941406 C 227.324219 221.625 227.394531 221.421875 227.542969 221.421875 C 227.6875 221.421875 227.761719 221.582031 227.761719 221.800781 C 227.761719 223.554688 228.976562 225.445312 231.457031 225.445312 C 233.886719 225.445312 235.914062 224.019531 235.914062 220.765625 C 235.914062 217.105469 232.957031 215.816406 231.753906 215.570312 C 231.109375 215.4375 230.96875 215.320312 230.96875 215.105469 C 230.96875 214.925781 231.136719 214.777344 231.410156 214.726562 C 232.523438 214.46875 235.230469 213.210938 235.230469 210.015625 C 235.230469 208.859375 234.46875 206.636719 231.957031 206.636719 C 230.007812 206.636719 228.535156 207.925781 228.535156 209.542969 C 228.535156 209.871094 228.429688 209.957031 228.308594 209.957031 C 228.214844 209.957031 228.132812 209.871094 228.105469 209.574219 C 228.011719 208.691406 227.933594 207.46875 227.933594 206.84375 C 227.933594 206.597656 227.960938 206.484375 228.285156 206.308594 C 229.117188 205.90625 230.59375 205.335938 232.636719 205.335938 C 237.355469 205.335938 238.21875 208.09375 238.21875 209.390625 C 238.21875 212.0625 235.605469 213.9375 234.628906 214.3125 L 234.628906 214.371094 C 236.445312 214.828125 239.003906 216.449219 239.003906 219.769531 C 239.003906 223.59375 236.03125 226.804688 231.230469 226.804688 C 229.488281 226.796875 228.085938 226.488281 227.515625 226.128906 "/><path style=" stroke:none;fill-rule:evenodd;fill:#2e398d;fill-opacity:1;" d="M 247.992188 206.503906 C 245.855469 206.503906 244.992188 208.207031 244.992188 209.730469 C 244.992188 211.433594 246.046875 212.558594 248.292969 213.949219 C 249 213.589844 250.703125 212.527344 250.703125 209.765625 C 250.703125 207.707031 249.46875 206.503906 247.992188 206.503906 M 247.84375 225.527344 C 249.765625 225.527344 251.308594 223.921875 251.308594 221.398438 C 251.308594 218.660156 249.347656 217.375 247.148438 215.953125 C 245.824219 216.800781 244.242188 218.464844 244.242188 221.253906 C 244.253906 223.699219 245.859375 225.527344 247.84375 225.527344 M 241.480469 221.425781 C 241.480469 218.386719 243.617188 216.363281 246 215.296875 C 243.957031 214.113281 242.429688 212.605469 242.429688 210.28125 C 242.429688 208.148438 244.074219 205.328125 248.261719 205.328125 C 251.265625 205.328125 253.308594 206.855469 253.308594 209.515625 C 253.308594 212.390625 251.042969 214.007812 249.6875 214.582031 C 251.4375 215.621094 254.160156 217.316406 254.160156 220.722656 C 254.160156 223.945312 251.777344 226.796875 247.640625 226.796875 C 244.007812 226.796875 241.480469 224.792969 241.480469 221.425781 "/><path style=" stroke:none;fill-rule:evenodd;fill:#2e398d;fill-opacity:1;" d="M 263.746094 210.332031 L 263.675781 210.332031 C 263.113281 211.242188 259.027344 217.5625 258.191406 218.792969 L 263.75 218.792969 L 263.75 210.332031 Z M 256.191406 220.933594 C 255.894531 220.933594 255.574219 220.8125 255.574219 220.511719 C 255.574219 220.191406 255.796875 219.933594 255.894531 219.8125 C 256.074219 219.59375 265.25 206.089844 265.449219 205.8125 C 265.648438 205.566406 265.84375 205.328125 266.089844 205.328125 C 266.3125 205.328125 266.386719 205.523438 266.386719 205.792969 C 266.386719 206.207031 266.363281 208.109375 266.363281 209.890625 L 266.363281 218.785156 L 268.261719 218.789062 C 268.917969 218.789062 269.242188 218.527344 269.390625 218.527344 C 269.507812 218.527344 269.601562 218.632812 269.601562 218.847656 C 269.601562 219.089844 269.355469 220.210938 269.179688 220.570312 C 269.058594 220.808594 268.9375 220.929688 268.527344 220.929688 L 266.359375 220.929688 C 266.359375 221.800781 266.339844 223.035156 266.433594 224.238281 C 266.511719 225.085938 266.660156 225.585938 267.46875 225.78125 C 267.8125 225.859375 268.335938 225.882812 268.582031 225.882812 C 268.707031 225.882812 268.800781 225.964844 268.800781 226.15625 C 268.800781 226.347656 268.675781 226.40625 268.40625 226.40625 C 267.027344 226.40625 265.453125 226.316406 264.941406 226.316406 C 264.253906 226.316406 262.925781 226.40625 261.566406 226.40625 C 261.296875 226.40625 261.171875 226.351562 261.171875 226.15625 C 261.171875 225.960938 261.246094 225.882812 261.367188 225.882812 C 261.585938 225.882812 262.132812 225.855469 262.523438 225.796875 C 263.464844 225.683594 263.628906 225.085938 263.683594 224.234375 C 263.777344 223.03125 263.757812 221.796875 263.757812 220.925781 L 256.191406 220.925781 Z M 256.191406 220.933594 "/><path style=" stroke:none;fill-rule:evenodd;fill:#2e398d;fill-opacity:1;" d="M 272.378906 226.300781 C 271.96875 226.046875 271.921875 225.804688 271.921875 225.230469 C 271.921875 224.324219 271.890625 222.679688 272.027344 221.777344 C 272.078125 221.5 272.148438 221.28125 272.296875 221.28125 C 272.472656 221.28125 272.515625 221.445312 272.515625 221.75 C 272.515625 224.679688 274.140625 225.417969 275.867188 225.417969 C 277.835938 225.417969 279.929688 223.964844 279.929688 220.40625 C 279.929688 216.03125 275.640625 214.21875 273.699219 213.925781 C 273.410156 213.863281 273.238281 213.730469 273.257812 213.371094 L 273.820312 206.136719 C 273.84375 205.863281 274.015625 205.789062 274.289062 205.789062 L 280.324219 205.789062 C 281.003906 205.789062 281.425781 205.753906 281.695312 205.695312 C 281.972656 205.671875 282.117188 205.574219 282.191406 205.574219 C 282.386719 205.574219 282.433594 205.695312 282.433594 206.109375 C 282.433594 206.675781 282.363281 207.878906 282.117188 209.605469 C 282.09375 209.765625 282.023438 209.933594 281.855469 209.933594 C 281.695312 209.933594 281.660156 209.769531 281.660156 209.550781 C 281.660156 208.777344 281.480469 208.066406 279.492188 208.066406 L 275.015625 208.066406 L 274.664062 211.410156 C 278.332031 212.070312 282.808594 214.320312 282.808594 219.070312 C 282.808594 222.710938 280.417969 226.765625 274.710938 226.765625 C 273.914062 226.796875 273.003906 226.628906 272.378906 226.300781 "/><path style=" stroke:none;fill-rule:evenodd;fill:#2e398d;fill-opacity:1;" d="M 298.28125 205.796875 C 298.746094 205.796875 298.867188 205.867188 298.867188 206.011719 C 298.867188 206.171875 298.769531 206.398438 298.695312 206.5 C 296.648438 209.726562 292.808594 220.601562 292.4375 224.109375 C 292.390625 224.574219 292.4375 224.773438 292.4375 225.121094 C 292.4375 225.675781 290.445312 226.792969 289.339844 226.792969 C 289.070312 226.792969 288.996094 226.707031 288.996094 226.464844 C 288.996094 226.195312 289.039062 225.78125 289.171875 225.332031 C 289.855469 222.707031 293.007812 214.632812 296.402344 208.304688 L 290.019531 208.304688 C 289.328125 208.304688 288.300781 208.367188 287.707031 208.789062 C 287.257812 209.128906 286.945312 210.011719 286.890625 210.4375 C 286.867188 210.652344 286.796875 210.796875 286.652344 210.796875 C 286.476562 210.796875 286.449219 210.65625 286.449219 210.375 C 286.449219 209.378906 286.816406 206.164062 286.816406 205.890625 C 286.816406 205.613281 286.917969 205.511719 287.070312 205.511719 C 287.222656 205.511719 287.78125 205.785156 290.394531 205.785156 L 298.277344 205.785156 L 298.277344 205.796875 Z M 298.28125 205.796875 "/><path style=" stroke:none;fill-rule:evenodd;fill:#2e398d;fill-opacity:1;" d="M 313.042969 205.796875 C 313.511719 205.796875 313.632812 205.867188 313.632812 206.011719 C 313.632812 206.171875 313.53125 206.398438 313.464844 206.5 C 311.421875 209.726562 307.578125 220.601562 307.207031 224.109375 C 307.167969 224.574219 307.207031 224.773438 307.207031 225.121094 C 307.207031 225.675781 305.21875 226.792969 304.113281 226.792969 C 303.84375 226.792969 303.773438 226.707031 303.773438 226.464844 C 303.773438 226.195312 303.820312 225.78125 303.9375 225.332031 C 304.625 222.707031 307.777344 214.632812 311.167969 208.304688 L 304.800781 208.304688 C 304.109375 208.304688 303.074219 208.367188 302.484375 208.789062 C 302.039062 209.128906 301.722656 210.011719 301.671875 210.4375 C 301.644531 210.652344 301.574219 210.796875 301.421875 210.796875 C 301.25 210.796875 301.226562 210.65625 301.226562 210.375 C 301.226562 209.378906 301.605469 206.164062 301.605469 205.890625 C 301.605469 205.613281 301.703125 205.511719 301.851562 205.511719 C 302 205.511719 302.5625 205.785156 305.175781 205.785156 L 313.039062 205.785156 L 313.039062 205.796875 Z M 313.042969 205.796875 "/><path style=" stroke:none;fill-rule:evenodd;fill:#2e398d;fill-opacity:1;" d="M 327.8125 205.796875 C 328.285156 205.796875 328.40625 205.867188 328.40625 206.011719 C 328.40625 206.171875 328.300781 206.398438 328.234375 206.5 C 326.191406 209.726562 322.355469 220.601562 321.984375 224.109375 C 321.9375 224.574219 321.984375 224.773438 321.984375 225.121094 C 321.984375 225.675781 319.992188 226.792969 318.878906 226.792969 C 318.609375 226.792969 318.535156 226.707031 318.535156 226.464844 C 318.535156 226.195312 318.589844 225.78125 318.710938 225.332031 C 319.402344 222.707031 322.550781 214.632812 325.949219 208.304688 L 319.566406 208.304688 C 318.875 208.304688 317.84375 208.367188 317.253906 208.789062 C 316.808594 209.128906 316.492188 210.011719 316.4375 210.4375 C 316.414062 210.652344 316.34375 210.796875 316.191406 210.796875 C 316.023438 210.796875 315.996094 210.65625 315.996094 210.375 C 315.996094 209.378906 316.371094 206.164062 316.371094 205.890625 C 316.371094 205.613281 316.46875 205.511719 316.613281 205.511719 C 316.761719 205.511719 317.332031 205.785156 319.9375 205.785156 L 327.808594 205.785156 L 327.808594 205.796875 Z M 327.8125 205.796875 "/></g></svg>