<?xml version="1.0" encoding="utf-8"?>
<!-- Generator: Adobe Illustrator 24.3.0, SVG Export Plug-In . SVG Version: 6.00 Build 0)  -->
<svg version="1.1" id="Layer_1" xmlns="http://www.w3.org/2000/svg" xmlns:xlink="http://www.w3.org/1999/xlink" x="0px" y="0px"
	 viewBox="0 0 1080 1080" style="enable-background:new 0 0 1080 1080;" xml:space="preserve">
<style type="text/css">
	.st0{fill-rule:evenodd;clip-rule:evenodd;fill:#72BB2C;}
	.st1{fill:#045990;}
</style>
<g>
	<g>
		<path class="st0" d="M557.75,720.63c1.77-0.86,8.46-1.18,10.73-2.33C557.53,719.12,557.52,718.7,557.75,720.63z"/>
		<path class="st0" d="M362.6,528.81c-1.37,6.82-0.57,11.82-0.1,16.07C361.98,540.16,363.4,533.14,362.6,528.81z"/>
		<path class="st0" d="M537.3,720.45c0.38,0.26,1.16,0.44,1.97,0.4c0.8-0.05,1.81-0.11,2.79-0.17c-0.96-0.18-1.57-0.3-2.15-0.41
			C538.54,720.12,537.34,720.11,537.3,720.45z"/>
		<path class="st0" d="M548.24,720.42c-0.39,0.16-0.6,0.24-1.01,0.41c0.61,0.07,1.58,0.19,2.19,0.27c0.01-0.17,1.01-0.33,0.6-0.47
			C549.82,720.54,548.82,720.47,548.24,720.42z"/>
		<path class="st0" d="M565.88,358.15c6.18,1.37,13.18,2.92,19.18,4.25c2.29,0.69,4.8,1.45,7.31,2.2c5.33,0.76,10.52,4.2,15.39,5.58
			l-0.35-0.32c2.59,1.17,4.79,2.16,7.38,3.32c2.3,0.74,5.04,2.62,7.3,3.47c3.99,2.28,8.14,4.28,11.61,6.62
			c1.99,1.35,3.44,2.34,4.76,2.77c3.09,2.11,6,4.1,9.28,6.34c1.23,0.55,3.2,2.37,4.22,2.83c0.96,0.58,1.71,1.07,2.35,1.36
			c-1.34-1.87-3.71-3.56-5.85-5.12l-10.98-7.51c-3.25-2.33-6.3-4.56-9.57-5.51c-2.53-1.35-4.86-2.59-7.21-3.84
			c-3.87-1.58-8.56-4.5-12.48-5.45c-1.61-0.69-3.23-1.38-4.65-1.99c-2.83-1.15-5.59-2.58-7.89-2.71c-1.05-0.34-2.1-0.68-2.93-0.95
			c-0.81-0.35-1.65-0.62-2.52-0.76c-0.85-0.23-1.48-0.41-2.33-0.64c-7.29-2.5-14.56-4.31-21.98-5.38c-1.97-0.28-3.09-0.21-3.16,0.19
			C562.69,357.34,563.94,357.81,565.88,358.15z M634.88,383.5c0.05,0.03,0.11,0.08,0.17,0.11c0.65,0.23,1.43,0.87,2.39,1.58
			c-0.99-0.66-1.83-1.21-2.39-1.58c-0.06-0.02-0.13-0.06-0.19-0.08L634.88,383.5z"/>
		<path class="st0" d="M695.64,646.99c-0.03,0.04-0.05,0.08-0.08,0.12c-0.1,0.14-0.16,0.31-0.25,0.45L695.64,646.99z"/>
		<path class="st0" d="M720.35,569.97c0-0.1,0-0.21,0-0.32c0.78-4.73,1.46-9.51,1.11-14.62c-0.17,0.37-0.29,0.78-0.42,1.18
			c0.05-1.03,0.07-2.09-0.06-2.98l-0.14-0.66l0.08-0.87c0.05-3.95,0.09-7.91,0.14-12.08c-0.12-0.65-0.24-1.3-0.44-2.39
			c-1.08-11.35-3.07-23.17-6.13-34.24c-0.32-0.84-0.7-1.84-0.94-2.46c-2.8-9.54-5.92-18.25-9.77-27.83
			c-0.37-0.54-0.99-1.44-1.36-1.98c-0.41-1-0.73-1.79-1.05-2.58c-0.24-1.52-1.05-3.05-2.19-4.65c-3.14-5.86-5.72-12.33-9.67-16.43
			c-5.45-6.7-11.53-15.4-18.06-21.89c-3.2-3.39-5.04-6.89-8.31-9.97c-3.18-2.84-3.72-1.72-8.26-5.47c-4.89-3.69-9.61-7.9-14.89-11.7
			l-0.31,0.42c-0.07-0.26-0.29-0.65,0.31-0.42l-2.06-1.44l-0.3,0.42c-2.24-1.55-4.3-2.98-6.38-4.42c-0.59-0.24-1.58-0.64-2.36-0.96
			l-0.76-0.36l-0.47-0.42c-1.82-1.45-4.44-2.32-5.4-3.55c1.21-0.01,5.17,2.33,5.54,1.76c-7.32-4.54-11.89-6.29-15-6.12
			c-1.44-0.83-3.48-1.87-3.33-2.18c1.18-0.97-2.03-2.06-6.2-3.47c-3.39-1.1-4.4-0.81-4.29,0.04c-0.96-0.4-1.52-0.64-2.28-0.96
			c-0.91-0.52-1.89-0.88-2.5-0.99l0.33,0.28c-0.93-0.45-1.69-0.79-2.47-1.06c-2.92-1.04-7.57-2.2-6.01-2.96
			c1.25-0.52-0.66-1.38-4.08-2.42c-2.83-0.81-5.55-2.05-8.64-1.74c3.41,1.07,7.39,3.04,6.11,3.76c-1.47-0.26-3.16-0.71-4.88-1.11
			c-0.98-0.92-1.74-1.82-3.33-2.77c-0.37-0.48-0.77-0.89-2.43-1.31c-0.22-1.14-1.02-2.3-2.83-3.38c1.62,0.11,3.37,0.28,5.11,0.45
			c5.28,0.91,10.62,2.51,15.06,4.76c2.87,1.49,6.52,2.57,9.94,3.1c4.7,1.99,9.19,3.9,13.89,5.89c11.58,5.32,22.49,11.5,32.65,17.68
			l-0.21-0.09c5.88,3.65,10.99,9.01,16.69,13.28c2.21,1.41,4.83,4.01,7.39,6.66c0.79,0.75,1.74,1.65,2.67,2.54
			c1.8,1.6,3.67,3.71,5.43,5.62c5.46,6.72,10.67,12.57,15.25,18.95c-0.25-0.61-0.25-0.61-0.42-1.01c0,0,0,0,0.23,0.36l0.19,0.65
			c1.48,2.18,3.15,4.97,4.54,6.18l0.78,1.07l0.63,1.13c2.23,4.03,4.11,8.68,6.51,11.65c0.57,0.94,0.73,1.12,1.22,2.1
			c1.23,2.78,2.56,5.55,3.74,7.66c0.25,0.62,0.29,0.61,0.41,0.56c0.2,0.16,0.2-0.08,0.07-0.76c-1.53-6.72-4.58-13.46-9.26-20.69
			c-1.19-1.87-2.85-4.48-4.15-6.52c-8.07-14.77-18.36-25.34-29.64-34.44c-1.54-1.54-2.81-2.74-4.03-3.37
			c-1.51-1.26-3.06-2.49-4.14-2.91c-1.52-1.24-2.7-2.19-3.88-3.15c-2.15-1.84-4.13-3.54-6.28-5.38
			c-9.08-7.88-19.63-13.82-30.48-18.67c-4.89-2.3-10.3-3.93-15.46-6.66c-3.81-2.14-8.86-4.17-7.2-1.65
			c0.25,0.56-3.05-0.41-5.11-1.06c-3.92-1.12-8.38-2.71-12.61-3.59c-0.42-0.02-1.26-0.2-1.67-0.4c-0.79-0.37-1.64-0.55-2.93-0.62
			c-0.46,0.02-1.08-0.11-1.9-0.39c-3.64-1.18-7.35-2.2-11.12-3.01c-1.19-0.38-2.73-0.73-4.83-1.02c-0.23-0.46-0.92-0.84-2.91-1.07
			c-0.92-0.2-1.58-0.3-2.7-0.4l-0.66,0.11c-0.23,0.02-0.23,0.02-0.23,0.02c0.23-0.03,0.45-0.07,0.89-0.13
			c-0.45-0.4-1.35-0.65-3.61-0.66l-0.23-0.07l0,0.04c-0.22-0.29-1.13-0.37-2.73-0.4c-0.43,0.12-1.55,0.21-1.8,0.1
			c-4.18,0.32-8.38,0.92-12.55,1.65c-2.31-0.19-4.87-0.07-7.2,0.21c-10.16,0.6-19.75,2.08-29.89,4.3l0.02,0.09l0.02,0.08l-0.04-0.17
			c-4.44-0.06-10.08,2.43-15.14,3.59c-2.25,0.08-5.14,1.05-7.57,1.99c-1.53,0.22-3.61,0.9-5.84,1.74c-2.66,0.97-1.59,1.29-3.14,2.06
			c-1.18,0.57-2.27,1.28-2.57,1.7c-0.7,0.55-4.05,2.04-3.19,2.36c0.38,0.29,1.11,0.34,2.8-0.07c0.71,0.51,2.69,0.25,5.58-0.54
			l0.54-0.33l0.02,0.04c-0.2,0.08-0.4,0.16-0.56,0.29c1.95,0.33,4.12,0.7,6.07,1.04c0.26,0.69,1.09,1.1,3.71,0.56
			c-1.43,0.88-2.82,1.78-4.12,2.74c-3.84,2.2-9,3.99-11.15,6.86c-5.2,3.79-11.35,7.44-15.48,11.84l0.34-0.27
			c-2.44,2.6-6.47,4.98-8.18,7.41l-0.03-0.03c-1.07,1.14-3.01,2.58-4.07,4.02l-0.37,0.56l-0.67,0.56c-2.34,2.29-4.7,4.59-7.13,6.97
			c-3.14,2.5-6.29,5.16-8.74,8.76c-3.26,4.42-9.58,11.36-13.14,16.94c-3.61,5.94-9.17,11.66-11.11,17.91l0.3-0.26
			c-0.14,0.35-0.18,0.33-0.18,0.33l-0.11-0.06c-3.69,6.36-7,13.02-9.86,19.9c-2.02,4-3.64,8.47-4.93,13.51
			c-0.37,1.18-0.74,2.36-1.08,3.55c-3.22,9.09-5.83,18.82-6.76,28.87c-0.63,5.22-1.23,9.89-0.31,14.19c0.12,0.78,0.08,1.17-0.1,1.55
			c-0.42,1.17-0.54,2.72-0.56,4.68c-1.09,4.7,0.08,9.74,0.35,14.6l0.14,0.17c0.01,0,0.03,0.01,0.03,0.01l-0.02,0l-0.01-0.01
			c-0.03-0.01-0.09-0.03-0.14-0.17c-0.42,2.01-0.13,5.14,0.43,7.82l0.04-0.01c-0.29,1.83,0.7,5.22,0.8,7.61
			c0.2,0.56,0.26,1.14,0.21,1.56c-0.24,1.05,0.01,2.8,0.48,4.92c0.36,3.14,1.17,6.41,2.58,8.66l0.01,0
			c0.47,2.29,1.06,4.45,2.07,6.29c0.84,2.74,1.61,5.27,2.38,7.81c1.62,3.86,2.87,9.23,4.97,12.68c0.65,1.63,1.31,3.25,1.89,4.69
			c1.19,2.82,2.13,5.77,3.66,7.49c0.5,0.98,1.01,1.96,1.41,2.75c0.32,0.82,0.73,1.6,1.25,2.32c0.44,0.77,0.76,1.33,1.19,2.1
			c3.39,6.92,7.25,13.34,11.74,19.35c1.19,1.59,2.04,2.34,2.37,2.1c0.34-0.24-0.22-1.46-1.35-3.07c-3.4-5.34-7.25-11.38-10.56-16.57
			c-1.13-2.11-2.37-4.42-3.61-6.73c-3.24-4.31-4.47-10.41-6.94-14.83l0.02,0.47c-1.01-2.66-1.86-4.91-2.87-7.57
			c-1.11-2.15-1.71-5.41-2.71-7.62c-0.33-1.2-0.68-2.39-1.03-3.58c0.11,0.21,0.21,0.43,0.34,0.63l-0.04,0.01
			c0.29,0.51,0.47,0.85,0.77,1.38c-0.12-0.56-0.2-0.93-0.3-1.46c-0.01,0.03,0,0.08-0.01,0.11l0-0.19c0.01,0.03,0.01,0.05,0.02,0.07
			c0.09-0.48-0.12-1.34-0.16-2.08c0.13-1.07-0.34-2.93-0.82-4.81l-0.1,0.03l-0.04,0.01l0.15-0.05c0.03-0.43-0.02-0.98-0.12-1.6
			c1.43,5.59,3.24,11.09,5.29,16.45c1.83,5.09,4.5,10.06,6.23,15.64c1.18,4.21,3.31,9.21,3.93,6.26c0.22-0.57,1.86,2.45,2.86,4.36
			c1.98,3.56,4.01,7.84,6.38,11.45c0.28,0.32,0.75,1.04,0.9,1.46c0.3,0.82,0.77,1.55,1.64,2.51c0.33,0.31,0.68,0.84,1.07,1.62
			c5.19,10.18,11.61,19.84,21.35,27.52c1.29,1.15,2.79,2.7,3.73,3.89c1.52,2.46,4.21,4.98,6.77,6.99
			c7.61,6.76,15.44,12.49,24.17,18.09l0.05-0.07l0.05-0.07l-0.09,0.15c3.1,3.19,8.85,5.41,13.24,8.17c1.65,1.54,4.38,2.89,6.75,3.95
			c1.24,0.92,3.19,1.92,5.36,2.9c2.57,1.19,2.04,0.21,3.68,0.77c1.24,0.43,2.51,0.7,3.02,0.61c0.88,0.1,4.31,1.41,3.93,0.58
			c-0.06-0.47-0.54-1.03-2.02-1.93c-0.14-0.86-1.73-2.08-4.33-3.57l-0.62-0.15l0.02-0.04c0.2,0.09,0.4,0.17,0.6,0.19
			c-1.14-1.61-2.42-3.41-3.56-5.03c0.36-0.79-0.08-1.87-3.66-3.9c-0.34-0.71-1.07-1.56-1.38-2.34c2.59,1.21,5.45,2.35,7.96,3.23
			c2.7,0.93,4.28,0.84,4.48,0.34c0.65-0.57-2.37-1.67-4.17-2.59c-2.16-1.08-3.83-2.28-3.95-2.93c-0.25-0.86,2.88,0.46,4.46,0.81
			c5.46,1.35,12.37,4.88,18.57,5.72c2.88,0.65,6.52,2.37,9.05,2.03l-0.17-0.13l0.2,0.04l-0.02,0.08c4.24,0.87,8.6,2.21,12.21,2.15
			c-0.38-0.15-0.75-0.27-0.93-0.4c0.2,0.04,0.2,0.04,0.2,0.04l0.73,0.35c3.86,0.61,8.54,1.46,11.74,1l-0.39-0.13l0.4,0.05
			l-0.01,0.08c6.22,0.27,12.67,1.99,19.55,0.67c5.43-0.82,14.8-1.26,21.27-2.68c6.76-1.65,14.73-1.76,20.52-4.8l-0.39-0.02
			c0.35-0.14,0.36-0.1,0.36-0.1l0.03,0.13c12.86-3.41,25.52-8.36,37.36-14.91c7.67-3.65,15.31-8.06,22.34-13.46
			c0.01,0,0.02-0.01,0.03-0.01c0.28,0.3,1.01,0.15,2.42-0.9l0.7-0.85l0.03,0.03c0,0-0.43,0.48-0.73,0.82
			c0.65,0.01,1.44-0.12,2.42-0.5c-1.77,1.38-3.7,3.2-5.45,4.06l0.16-0.13c-1.91,1.07-4.55,3.12-6.39,3.87
			c-4.23,1.42-8.58,5.5-13.21,7.64c-1.04,0.51-2.46,1.21-3.86,1.89c-2.61,0.86-5.84,3.15-8.67,3.95c-1.43,0.59-2.52,1.03-3.6,1.47
			c-4.72,2.24-9.34,4.41-14.31,5.46l-0.72,0.3l-0.56,0.14c-14.67,3.58-25.37,7.46-36.69,10.1c21.52-2.23,42.41-8.7,61.66-18.05
			c1.4-0.71,2.65-1.34,4.23-2.14c3.54-0.88,7.39-3.35,10.98-5.81c2.01-1.26,3.84-2.42,5.87-3.69c1.96-0.98,4.31-2.78,6.21-3.9
			c0.78-0.62,1.26-0.96,1.77-1.26c1.9-0.8,3.99-2.67,6.14-4.42c0.63-0.48,1.43-1.09,1.92-1.46c0.83-0.53,1.93-1.11,2.56-1.6
			c0.93-0.91,1.82-1.79,2.72-2.67c0.57-0.2,1.33-0.74,2.59-1.99l0.22-0.12l-0.03-0.03c0.36,0.05,1.06-0.53,2.21-1.64
			c0.22-0.39,0.95-1.25,1.2-1.34c5.98-6.97,11.14-14.85,15.92-22.63c1.85-2.74,3.49-5.77,4.86-8.55c1.37-1.81,2.59-3.78,3.33-5.7
			c0.59-0.82,1.19-1.6,1.83-2.34c3.7-9.63,7.78-19.56,9.21-28.93c1.16-4.27,3.55-9.19,3.03-12.74c1-6.35,2.77-13.28,2.57-19.31
			L720.35,569.97z M685.76,434.22l-0.11,0.08c0,0,0.05-0.04,0-0.24L685.76,434.22z M460.55,371.29c-0.05-0.12-0.32-0.2,0.27-0.51
			c0.17-0.16,0.59-0.24,0.77-0.38C461.07,370.82,460.49,371.15,460.55,371.29z M482.92,721.06c-0.05,0.12,0.09,0.37-0.55,0.17
			c-0.24-0.01-0.59-0.25-0.82-0.28C482.22,721.02,482.86,721.2,482.92,721.06z M709.2,537.43l-0.09,0l0-0.4L709.2,537.43z
			 M708.07,561.84c0.23-3.89,0.57-7.79-0.05-11.29C708.77,553.65,708.35,557.74,708.07,561.84z M708.37,488.15
			c-0.19-0.17-0.58-1.17-0.8-1.31c-0.1-0.43-0.25-1.05-0.35-1.47C707.63,486.36,708.13,487.56,708.37,488.15z M706.89,510.59
			l0.09-0.02c-0.05,0.22-0.12,0.86-0.28,0.48C706.7,511.06,706.83,510.82,706.89,510.59z M703.41,547.4l0.04,0l-0.05,0.2
			L703.41,547.4z M699.33,533.51c0.05,0.78,0.3,1.16,0.19,1.74c-0.11,1.56-0.38-0.16-0.62-0.94
			C699.09,534.3,699.29,534.29,699.33,533.51z M696.91,560.9l0.13,0.01l-0.08,0.39C696.89,561.47,696.91,560.9,696.91,560.9z
			 M659.83,656.59c0.29-0.54,0.6-1.1,0.9-1.64c0.18-2.66,3.56-7.35,6.1-12.76c-1.03,3.91-3.7,8.41-6.1,12.76
			c-0.02,0.23-0.16,0.54-0.12,0.73C660.47,655.83,660.22,656.13,659.83,656.59z M431.52,653.9c-0.2-0.12-0.48-0.42-0.66-0.5
			l-0.03,0.03l-0.11-0.13c-0.41-0.4-0.28-0.27-0.41-0.4l0.02-0.01c0,0,0.15,0.12,0.4,0.42c0.14,0.11,0.14,0.11,0.14,0.11l0.34,0.21
			C431.31,653.73,431.41,653.8,431.52,653.9z M400.29,644.63c-0.12-0.15-0.23-0.29-0.23-0.29c0.33,0.21,0.47,0.11,0.38-0.29
			c-0.03-0.05-0.07-0.11-0.1-0.17c0.05,0.04,0.09,0.1,0.14,0.14c-1.66-3.17-3.07-7.38-1.66-6.98c1.66,2.39,3.45,5.88,5.5,8.26
			c0.93,1.36,1.98,2.9,3.03,4.44c1.62,3.95,1.93,4.72,1.11,5.91c-0.99-1.74-2.45-3.46-3.98-5.59c-0.68-1.93-2.45-3.92-4.05-6.03
			C400.53,644.45,400.43,644.53,400.29,644.63z M405.23,586.84l0.15-0.04l-0.01,0.38L405.23,586.84z M402.88,597.49
			c-0.31-0.29-0.51-0.35-0.69-0.38c-0.18,1.06-0.45,1.94-0.9,2.44c0.21-1.02,0.16-2.57,0.9-2.44c0.11-0.65,0.22-1.3,0.22-2.17
			C402.72,596,402.5,596.44,402.88,597.49z M397.18,628.85c0,0-0.1-0.19-0.18-0.35c0.49,0.9,1.28,2.09,1.85,2.71l-0.13,0.07
			C398.28,630.59,397.84,629.89,397.18,628.85z M394.39,612.03c-0.41-0.69-0.61-1.03-0.71-1.21c-0.13-0.37-0.26-0.75-0.33-0.94
			C393.62,610.43,394.04,611.32,394.39,612.03z M388.84,588.97c-0.15,0.04-0.4-0.32-0.67-0.86c0,0,0,0-0.08-0.4
			C388.3,588.29,388.64,589.02,388.84,588.97z M372.68,574.2c-0.12-0.17-0.27-0.71-0.27-0.71l0.04-0.01
			C372.56,574.03,372.6,574.02,372.68,574.2z M377.31,591.23c-0.33,0.1-0.14,1.2,0.24,2.66c-0.39-0.86-0.82-1.7-0.93-2.85
			C376.68,590.45,377.04,590.92,377.31,591.23z M385.82,581.31c-0.4-0.73-0.84-1.67-1.19-3.62
			C385.05,579.24,385.43,580.37,385.82,581.31z M387.12,590.81c-0.12-1.21-0.25-2.18,0.17-2.28
			C386.96,588.6,387.01,589.6,387.12,590.81z M370.29,534.93l-0.02,0.36l-0.09-0.01l0-0.17c0.02-0.19,0.02-0.19,0.02-0.19
			L370.29,534.93z M369.21,542.17l0,0.17c-0.02,0.06-0.03,0.13-0.04,0.2c-0.12,0.97-0.21,1.77-0.31,2.61
			c-0.01,0.25-0.03,0.49-0.05,0.76c0-0.38,0-0.38,0-0.38c0.02-0.13,0.03-0.25,0.05-0.37c0.06-1.04,0.14-1.89,0.31-2.61
			C369.18,542.42,369.2,542.31,369.21,542.17z M366.23,570.48c0.16,0.02,0.31-0.04,0.45-0.22c0.06,0.59,0.1,0.96,0.15,1.53
			C366.67,571.3,366.46,570.87,366.23,570.48c-0.47-0.06-0.98-0.86-1.47-1.68C365.27,569.12,365.79,569.71,366.23,570.48z
			 M389.32,618.91c0.39,0.96,0.62,1.53,0.94,2.29c0.27,1.01,0.71,1.96,1.06,2.47l-0.04-0.43c0.34,0.98,0.64,1.75,1,2.5
			c1.33,2.8,3.8,6.91,2.16,6.35c-0.46-0.19-0.64-0.04-0.62,0.37c-0.5-0.99-0.99-1.96-1.44-2.85l-0.04,0.02
			c0.01-1.34-1.86-3.71-2.74-5.8c-0.27-1.56-0.78-3.27-1.63-5.23C388.59,619.27,389.03,619.3,389.32,618.91z M434.69,419.31
			c0.02-0.03,0.04-0.05,0.05-0.08c0,0,0.01,0,0.01,0C434.73,419.26,434.71,419.29,434.69,419.31z M555.24,382.13l-0.03,0.24
			c-0.03,0.19-0.96,0.05-0.98,0.18C554.26,382.35,555.21,382.35,555.24,382.13z M543.45,380.53c-0.39-0.04,0-0.02-0.19-0.04
			c-0.19,0-0.95-0.01-0.95-0.01l0.39-0.05c0.77-0.14,2.09-0.19,3.24-0.16C545.36,380.44,543.85,380.33,543.45,380.53z
			 M545.96,382.28l0,0.02c0,0-0.2,0.02-0.58-0.01c-0.17,0.03-0.17,0.03-0.17,0.03l-0.39,0.09c-0.16,0-0.27,0.02-0.42,0.02
			c0.22-0.06,0.64-0.04,0.82-0.11l0-0.04l0.17,0.02C545.95,382.29,545.76,382.29,545.96,382.28z M672.91,610.47
			c0.07-0.38,0.4-0.81,0.53-0.95l0.1,0.04C673.36,609.88,672.86,611.03,672.91,610.47z M673.32,611.71l-0.15,0.28l0.04-0.34
			c-0.06,0.06-0.11,0.13-0.16,0.19c0-0.04,0.01-0.08,0.01-0.12c0.05,0.02,0.13-0.08,0.22-0.2c-0.02,0.04-0.04,0.08-0.07,0.13
			L673.32,611.71z M691.59,559.6c-0.07,0.55-0.1,0.74-0.2,1.47c-0.01-0.75-0.12-0.76-0.16-0.96
			C691.37,559.58,691.48,559.78,691.59,559.6z M688.11,470.04c0.04,0.08,0.03,0.06,0.11,0.22l-0.09-0.18
			C688.12,470.06,688.12,470.06,688.11,470.04c-0.09-0.19-0.17-0.37-0.24-0.5c-0.11-0.4-0.13-0.59-0.13-0.59
			C687.77,469.13,687.88,469.53,688.11,470.04z M687.32,452.57c0.08,0.12,0.09,0.14,0.09,0.14
			C687.38,452.66,687.35,452.62,687.32,452.57c-0.01-0.01-0.01-0.01-0.02-0.03l-0.11-0.18
			C687.19,452.37,687.25,452.46,687.32,452.57z M684.85,450.37l-0.07,0.04c0,0,0,0-0.11-0.18
			C684.82,450.39,684.85,450.37,684.85,450.37z M631.42,403.17c-1.38-0.8-2.45-1.33-3.4-1.72
			C628.82,401.68,629.79,402.04,631.42,403.17z M620.74,398.12c0.2,0,0.46,0.05,0.82,0.17c0,0,0,0,0.34,0.22
			C621.5,398.34,621.03,398.16,620.74,398.12z M621.88,397.38c0.18-0.3-0.55-0.96-1.49-1.74
			C621.33,396.42,622.11,397.02,621.88,397.38z M601.6,386.13c0.35,0.17,0.72,0.35,0.9,0.43c-0.58-0.2-1.5-0.52-2.26-0.78
			C601.02,385.98,601.4,386.08,601.6,386.13z M583.58,375.23c0.8,0.18,1.6,0.36,2.8,0.63c0,0,0.2,0.06,0.38,0.12
			c-0.98-0.29-2.39-0.57-3.23-0.6L583.58,375.23z M549.79,356.54c-0.17,0.04-0.28,0.1-0.58,0.16l0-0.06L549.79,356.54z
			 M519.54,357.54c0,0,0,0,0.42,0.03c-0.42,0.02-1.27,0.06-1.72,0.08L519.54,357.54z M397.84,445.51c-0.01,0.17-0.02,0.44-0.03,0.68
			c0,0.01-0.01,0.01-0.01,0.02C397.76,446.03,397.75,445.82,397.84,445.51z M397.59,446.56c-0.01,0.02-0.02,0.04-0.03,0.05
			c-0.21,0.09-0.46,0.23-0.69,0.33C397.14,446.77,397.37,446.68,397.59,446.56z M364.09,555.96c-0.08,0.25-0.15,0.5-0.34,0.29
			c0,0,0,0-0.03-0.39C363.91,556.28,364.01,556.15,364.09,555.96z M368.27,589.09c0.01,0.02,0.02,0.03,0.03,0.05l-0.02,0
			C368.28,589.13,368.28,589.11,368.27,589.09z M386.88,625.48c-0.48-1.19-0.95-2.35-1.42-3.52c0.2,0.27,0.39,0.56,0.59,0.83
			c0.14,0.89,0.76,2.21,1.31,3.4C387.2,625.96,387.05,625.71,386.88,625.48z M399.01,648.72c-3.09-4.38-5.74-9.28-7.29-14.01
			c-0.18-0.58-0.42-1.17-0.66-1.77c0.55,0.88,1.04,1.75,1.35,2.54c0.4,1.34,1.77,3.22,2.78,4.84c0.24,0.31,0.58,0.53,0.86,0.81
			c3.79,5.11,7.15,10.49,12.02,15.1c-0.11,0.13-0.21,0.26-0.34,0.41C406.32,657.67,402.56,653.05,399.01,648.72z M409.59,614.38
			c0.96-0.04,1.2-1.33,0.77-3.67c0,0,0,0.01,0.01,0.01c0.29,1.44,0.57,2.87,0.82,4.13C411.82,617.37,410.44,615.4,409.59,614.38z
			 M411.69,646.31c0.2,0.11-0.24-0.8,0.31-0.21c0.55,0.59,0.12,0.41,0.38,0.96C412.23,646.91,411.97,646.62,411.69,646.31z
			 M423.63,646.43l0.19-0.14c0.16-0.12,0.71,0.65,0.82,0.57C424.48,646.97,423.81,646.3,423.63,646.43z M428.9,654.32
			c0.52,0.3,1.51,1.44,1.94,1.58c0.25,0.3-0.02,0.01,0.11,0.16c0.14,0.14,0.67,0.68,0.67,0.68l-0.31-0.24
			C430.65,656.06,429.69,655.15,428.9,654.32z M431.49,689.06c0,0,0,0-0.28-0.32c0.31,0.28,0.94,0.86,1.27,1.16L431.49,689.06z
			 M438.59,686.01c0.02-0.05-0.06-0.14-0.04-0.2c-1.2-1.34-1.91-2.47-3.06-3.78l-0.37-0.22c0,0,0.21,0.09,0.04-0.05
			c0.16,0.14,0.16,0.14,0.32,0.27c2.84,2.27,3.23,3.16,3.06,3.78c0.23,0.26,0.36,0.48,0.65,0.76
			C438.9,686.3,438.9,686.3,438.59,686.01z M451.33,664.65c0.71,0.27,0.9,0.34,1.43,0.54c-0.27,0.03,0.07,0.45,0.12,0.67
			C452.33,665.4,451.82,665.17,451.33,664.65z M460.58,685.48l0.05-0.07l0.13,0.16C460.6,685.46,460.58,685.48,460.58,685.48z
			 M479.58,686.95c0.84,0.36,1.07,0.29,1.62,0.44C480.64,687.24,480.52,687.47,479.58,686.95z M488.86,691.86
			c0.17,0.07,0.18,0.05,0.18,0.05l-0.01,0.02L488.86,691.86c-0.12-0.03-0.2-0.02-0.32-0.04c-0.75,0.36-2.23,0.02-3.9-0.59
			c-0.71-0.18-1.48-0.46-2.39-0.97c-0.1-0.06-0.15-0.03-0.26-0.09c-0.66-0.31-0.67-0.31-1.16-0.53c0.46,0.21,0.94,0.42,1.42,0.63
			c0.81,0.35,1.62,0.69,2.39,0.97c1.35,0.34,2.47,0.29,3.9,0.59c0.04-0.02,0.13,0,0.17-0.03c0.09,0-0.04-0.07,0.02-0.08
			c-0.54-0.6-0.94-1.05-1.49-1.67c-0.09-0.05-0.15-0.1-0.23-0.16c0.15,0.07,0.15,0.07,0.15,0.07c-0.08-0.11-0.3-0.28-0.41-0.41
			c-1.81-1.18-3.51-2.4-4.8-3.58l-0.04,0.08c-1.82-1.14-3.95-2.47-3.95-2.47s1.99,1.21,3.51,2.13c0.32,0.18,0.32,0.18,0.48,0.26
			c2.52,1.35,3.98,2.6,4.8,3.58c0.28,0.18,0.46,0.38,0.75,0.56c0,0,0,0-0.34-0.15c0.03,0.03,0.05,0.06,0.08,0.09
			c1.22,0.78,2.4,1.53,1.49,1.67C488.77,691.77,488.81,691.8,488.86,691.86z M493.46,692.64l-1.98-0.85
			c0.68,0.24,1.47,0.68,2.35,0.92C493.83,692.7,493.64,692.67,493.46,692.64z M503.67,705.93l0.02-0.06l0.01-0.02L503.67,705.93z
			 M513.41,701.31c0.22-0.09-0.47-0.31-0.44-0.43c0.15,0.16,0.46,0.35,0.97,0.6C513.59,701.36,513.59,701.36,513.41,701.31z
			 M526.88,704.45l0.01-0.06l0.35,0.14L526.88,704.45z M535.72,705.72c-0.87-0.45-1.89-0.92-2.94-1.31
			c0.72,0.04,2.17,0.12,3.45,0.19C536.91,704.98,537.41,705.39,535.72,705.72z M549.76,694.58c0.17,0.13,0.66,0.23,1.35,0.37
			c0,0,0.15,0.13,0.5,0.18l0,0.04c-0.34-0.09-0.49-0.23-0.49-0.23c-0.84-0.17-1.18-0.24-1.68-0.34
			C549.75,694.62,549.76,694.58,549.76,694.58z M551.55,697.29c0.17,0,0.17,0,0.17,0c-0.18,0.13-0.69,0.25-1.22,0.37
			C551.04,697.54,551.2,697.41,551.55,697.29z M580.42,712.29c-0.03,0.02-0.07,0.06-0.1,0.09c-0.08,0.17-0.25,0.36-0.58,0.54
			c0.14-0.13,0.39-0.36,0.58-0.54c0.05-0.11,0.08-0.21,0.06-0.31c0.04,0.24,0.63,0.35,1.05,0.52
			C581.03,712.49,580.81,712.34,580.42,712.29z M595.55,694.62c-0.7,0.22-1.6,0.61-1.7,0.25c-0.32,0.09-0.03-0.13-0.54-0.03
			c0.03-0.03,0.05-0.05,0.07-0.08c0.13-0.05,0.27-0.1,0.4-0.15l0.07,0.26l1.06-0.12C595.12,694.71,595.33,694.67,595.55,694.62
			c0.12-0.04,0.26-0.09,0.36-0.12l0.01,0.04C595.87,694.56,595.68,694.6,595.55,694.62z M630.52,678.58
			c-2.36,1.12-4.45,1.98-5.26,1.54c-1.16-0.35,1.23-1.7,3.22-3c0.86-0.57,1.95-1.38,1.3-1.5c-1.39,0.29-3.3,1.74-4.33,1.62
			c1.75-1.37,4.03-2.13,5.88-3.62c-0.44,0.11-0.72,0.15-0.86,0.07c-0.07,0.02-0.15,0.05-0.23,0.07c0.14-0.09,0.14-0.09,0.14-0.09
			c0.01,0.02,0.06,0.01,0.08,0.02c0.4-0.13,0.76-0.22,0.86-0.07c0.25-0.25,0.67-0.52,1.15-0.7c2.43-0.92,4.93-3.25,7.48-4.34
			c3.51-1.75,6.26-4.36,9.17-7.19l0.15-0.09l0.26-0.24c-0.13,0.11-0.13,0.11-0.13,0.11c2.13-2.96-0.7-0.55-2.45,0.76l-0.78,0.63
			l-0.45,0.26c-1.42,0.36-3.87,2.66-5.3,2.96c5.99-4.78,12.17-9.63,17.42-15.24c0.36-0.36,0.76-0.74,1.16-1.13
			c-0.05,0.09-0.1,0.18-0.11,0.22c-0.36,0.69,0.27,0.22,0.73-0.39c0.37-0.43,0.67-0.92,0.67-0.92c-0.03-0.02-0.07-0.04-0.1-0.07
			c0.99-1,1.79-1.96,1.82-2.7c0.12-0.94,0.64-1.98,1.36-3.09c1.39-0.67,3.45-2.7,4.36-2.51c-0.81,1.31-1.16,2.04-1.09,2.55
			c-2.95,4.07-3.76,6.12-5.39,9.08c-1.6,2.75-2.09,4.67-4.76,8.09c-1.44,1.62-2.76,3.22-4.02,4.8c-0.35,0.25-0.69,0.51-1.05,0.75
			C644.87,670.16,637.73,674.47,630.52,678.58z M638.26,677.17c0.16-0.09,0.76-0.45,0.76-0.45c0.23-0.06,0.47-0.2,0.71-0.33
			c0.35-0.2,0.67-0.38,0.9-0.42c-0.3,0.08-0.6,0.25-0.9,0.42C639.26,676.66,638.74,676.98,638.26,677.17z"/>
		<path class="st0" d="M407.94,424.5c-0.64,1.86-5.15,6.82-5.94,9.23C409.16,425.41,409.47,425.71,407.94,424.5z"/>
		<path class="st0" d="M362.63,520.15c0.6-2.11,1.01-5.42,1.78-7.26c1.98-4,2.18-9.95,3.95-14.74c0.38-1.1,0.89-2.59,1.39-4.07
			c1.24-2.45,1.9-6.36,3.34-8.93c0.6-1.43,1.05-2.51,1.51-3.59c1.75-4.92,3.49-9.72,6.26-13.98l0.29-0.72l0.3-0.5
			c4.58-7.54,8.13-14.17,11.51-20.37l2.9-4.32c0.9-1.52,1.62-2.91,1.35-3.09c-0.01-0.05-0.04-0.05-0.06-0.07
			c1.01-1.76,2.04-3.5,3.11-5.22c-12.18,15-21.6,32.04-28.46,49.92c-0.14-0.62-0.76,0.56-1.23,1.99c-1.12,3.51-2.52,7.07-3.38,10.52
			c-1.38,2.97-2.22,6.68-2.9,10.31c-0.53,2.31-1.01,4.43-1.54,6.76c-0.69,2.08-1.08,5.02-1.63,7.15c-0.11,0.99-0.22,1.57-0.37,2.14
			c-0.77,1.91-0.94,4.71-1.21,7.47c-0.11,0.79-0.24,1.78-0.32,2.39c-0.21,0.97-0.59,2.15-0.68,2.94c-0.03,3-0.05,5.78-0.08,8.78
			c0,0.2,0.13,0.59,0.13,0.59c0.13,0.2,0.22,0.2,0.35-0.39c0.22-0.61,0.44-1.2,0.58-2.4l-0.04,0c0.4-1.37,0.33-3.55,0.62-5.32
			c0.01-0.61,0-1.2,0.1-1.78c0.59-1.36,0.76-2.93,0.95-5.08c-0.18,0.7-0.35,1.26-0.54,1.76c-0.08,0.25-0.15,0.48-0.23,0.76
			c0,0,0,0,0.02-0.2c0.08-0.16,0.14-0.37,0.21-0.56c0.19-0.62,0.37-1.2,0.54-1.76c0.86-2.29,0.62-6.68,1.53-9.35L362.63,520.15z"/>
		<path class="st0" d="M681.57,422.15c-3.85-5.79-7.96-8.77-11.29-11.43C673.98,413.69,677.94,419.65,681.57,422.15z"/>
		<path class="st0" d="M701.3,450.32c1.16,2.19,2.52,4.76,3.78,7.13c0.68,1.15,1.39,2.56,1.85,3.08c1.09,1.21,0.67-0.32-0.14-1.92
			c-2.47-4.78-4.58-10.09-7.79-13.68c-0.37-0.56-0.73-1.12-1.23-1.87c-1.03-1.47-2.12-2.93-2.49-2.7c-0.53-0.18,0.43,1.32,1.16,2.46
			C698.12,445.45,699.73,448.38,701.3,450.32z"/>
		<path class="st0" d="M422.52,410.17c-0.46,0.08-1.13,0.51-1.67,1.11c-0.53,0.6-1.2,1.36-1.85,2.09c0.81-0.55,1.32-0.89,1.81-1.23
			C421.88,411.29,422.74,410.44,422.52,410.17z"/>
		<path class="st0" d="M414.82,417.93c0.16-0.38,0.25-0.6,0.43-1.01c-0.48,0.38-1.25,0.98-1.74,1.36c0.12,0.13-0.48,0.94-0.1,0.76
			C413.61,418.96,414.36,418.3,414.82,417.93z"/>
		<path class="st0" d="M706.45,629.96c-0.41,0.54-0.51-0.51-1.25,1.63c-0.14,0.44-0.15,0.92-0.06,0.97
			c0.32-0.32,0.83-1.08,1.34-1.85C706.87,629.91,706.99,629.22,706.45,629.96z"/>
		<path class="st0" d="M720.9,510.41c0.55,0.37,0.02-2.02-0.19-3.34l-1.6-7.86c-0.66-1.44-1.03-1.34-0.99,0.24l1.55,7.83
			C720.11,508.98,720.58,510.47,720.9,510.41z"/>
		<polygon class="st0" points="637.14,395.86 637.92,396.59 637.54,396.01 		"/>
	</g>
	<g>
		<g>
			<path class="st1" d="M578.28,635.36h-76.56c-33.98,0-61.63-27.65-61.63-61.63v-67.47c0-33.98,27.65-61.62,61.63-61.62h76.56
				c33.98,0,61.62,27.64,61.62,61.62v67.47C639.91,607.71,612.26,635.36,578.28,635.36z M501.72,458.33
				c-26.43,0-47.93,21.5-47.93,47.93v67.47c0,26.43,21.5,47.93,47.93,47.93h76.56c26.43,0,47.93-21.5,47.93-47.93v-67.47
				c0-26.43-21.5-47.93-47.93-47.93H501.72z"/>
		</g>
		<g>
			<path class="st1" d="M540,594.85c-30.25,0-54.85-24.61-54.85-54.86c0-30.25,24.6-54.85,54.85-54.85
				c30.25,0,54.85,24.6,54.85,54.85C594.86,570.25,570.25,594.85,540,594.85z M540,498.84c-22.7,0-41.16,18.46-41.16,41.16
				c0,22.69,18.47,41.16,41.16,41.16c22.69,0,41.16-18.46,41.16-41.16C581.16,517.3,562.7,498.84,540,498.84z"/>
		</g>
		<g>
			<path class="st1" d="M605.4,486.83c0,6.28-5.09,11.38-11.38,11.38c-6.29,0-11.39-5.1-11.39-11.38c0-6.29,5.1-11.38,11.39-11.38
				C600.3,475.45,605.4,480.54,605.4,486.83z"/>
		</g>
	</g>
</g>
</svg>
